<?xml version="1.0" standalone="no"?>
<!DOCTYPE svg PUBLIC "-//W3C//DTD SVG 20010904//EN"
 "http://www.w3.org/TR/2001/REC-SVG-20010904/DTD/svg10.dtd">
<svg version="1.0" xmlns="http://www.w3.org/2000/svg"
 width="1158.000000pt" height="1158.000000pt" viewBox="0 0 1158.000000 1158.000000"
 preserveAspectRatio="xMidYMid meet">
<metadata>
Created by potrace 1.14, written by Peter Selinger 2001-2017
</metadata>
<g transform="translate(0.000000,1158.000000) scale(0.100000,-0.100000)"
fill="#000000" stroke="none">
<path d="M5739 11503 c-1 -5 -1 -12 0 -17 1 -5 -5 -6 -13 -3 -8 3 -17 -1 -20
-9 -3 -9 -11 -12 -16 -9 -6 4 -9 1 -8 -7 2 -7 -3 -12 -9 -10 -7 1 -13 -3 -13
-9 0 -5 -4 -8 -9 -4 -5 3 -16 -4 -25 -16 -9 -13 -19 -18 -27 -14 -8 5 -10 4
-5 -3 4 -7 2 -12 -4 -12 -6 0 -9 -4 -5 -9 3 -6 -4 -8 -15 -6 -11 2 -18 0 -15
-6 4 -5 -5 -13 -18 -18 -13 -5 -27 -17 -30 -25 -4 -9 -13 -16 -21 -16 -9 0
-20 -9 -26 -20 -6 -11 -15 -18 -19 -15 -5 2 -14 -2 -21 -11 -7 -8 -19 -13 -26
-10 -8 3 -13 2 -13 -2 3 -17 -2 -35 -7 -29 -4 3 -13 -1 -21 -9 -8 -8 -19 -11
-25 -8 -6 4 -8 2 -5 -3 7 -12 -26 -46 -36 -37 -3 3 -17 -5 -30 -20 -13 -14
-28 -22 -32 -18 -5 4 -5 -2 -1 -12 5 -15 4 -17 -8 -7 -11 9 -15 8 -20 -5 -4
-10 -12 -14 -22 -10 -15 6 -15 4 -3 -11 9 -11 10 -14 2 -9 -7 4 -13 3 -13 -3
0 -6 -8 -7 -17 -4 -13 5 -15 2 -10 -12 6 -15 5 -16 -8 -5 -13 11 -14 10 -9 -5
5 -11 4 -16 -3 -12 -5 4 -19 -1 -29 -9 -10 -9 -13 -12 -5 -8 10 5 12 3 7 -5
-4 -7 -13 -10 -19 -8 -17 5 -40 -21 -31 -34 4 -7 3 -9 -3 -6 -5 3 -24 -3 -42
-14 -18 -11 -38 -16 -44 -12 -7 4 -5 -2 3 -12 8 -10 10 -16 3 -12 -6 4 -14 3
-18 -3 -4 -6 -11 -8 -16 -5 -5 4 -9 -2 -9 -11 0 -10 -3 -15 -6 -11 -4 3 -15
-4 -25 -16 -10 -12 -18 -18 -19 -13 0 4 -8 0 -17 -11 -10 -10 -16 -14 -13 -8
3 6 -3 3 -12 -8 -10 -10 -23 -15 -29 -11 -7 4 -9 3 -5 -4 7 -11 -32 -38 -48
-34 -5 2 -6 -4 -3 -12 4 -9 3 -15 -1 -14 -14 4 -52 -14 -47 -22 6 -9 -23 -22
-35 -15 -4 3 -7 -3 -6 -13 0 -9 -5 -16 -11 -15 -7 2 -13 -2 -13 -8 0 -8 -4 -8
-14 0 -11 9 -14 8 -12 -6 0 -10 -9 -22 -21 -28 -13 -5 -23 -13 -23 -18 0 -4
-4 -5 -10 -2 -5 3 -10 -1 -10 -9 0 -8 -5 -18 -12 -22 -7 -5 -9 -2 -4 7 4 8 1
6 -7 -3 -8 -10 -20 -18 -28 -18 -12 0 -12 -2 0 -9 10 -6 10 -10 1 -16 -6 -4
-9 -13 -6 -21 3 -9 -1 -14 -12 -14 -13 0 -14 -2 -3 -9 10 -7 11 -10 1 -16 -10
-6 -9 -11 4 -20 15 -11 15 -13 1 -19 -12 -4 -13 -10 -6 -24 7 -13 6 -23 -2
-32 -10 -10 -9 -11 3 -5 13 8 13 7 1 -8 -8 -10 -9 -17 -3 -17 12 0 10 -38 -2
-58 -4 -7 -2 -12 5 -12 9 0 9 -3 0 -14 -9 -11 -9 -15 1 -19 10 -4 10 -6 1 -6
-9 -1 -10 -8 -4 -24 6 -14 6 -30 0 -38 -12 -20 -11 -32 3 -23 7 5 8 3 2 -7
-12 -19 -16 -51 -6 -45 5 3 9 -1 9 -9 0 -8 -4 -12 -9 -8 -6 3 -7 -10 -4 -31 5
-30 3 -35 -12 -30 -15 5 -15 4 -1 -5 17 -11 14 -86 -3 -75 -6 4 -3 -4 6 -17
10 -16 12 -29 6 -39 -5 -8 -4 -22 2 -34 10 -20 10 -20 -7 -6 -17 14 -18 14 -6
-7 9 -18 9 -23 -1 -23 -10 0 -10 -2 -1 -8 7 -4 10 -16 9 -27 -2 -11 1 -26 7
-33 8 -10 7 -12 -3 -10 -7 2 -13 -7 -15 -19 -1 -13 3 -23 8 -23 5 0 4 -7 -3
-15 -10 -12 -10 -15 1 -15 11 0 11 -2 -1 -10 -13 -9 -13 -10 0 -10 9 0 11 -3
5 -8 -5 -4 -11 -15 -12 -25 -1 -13 4 -17 15 -13 10 4 6 -3 -8 -15 -14 -11 -20
-18 -13 -15 19 10 24 -10 7 -25 -14 -12 -14 -14 2 -26 10 -7 13 -13 7 -13 -7
0 -12 -8 -12 -17 0 -10 -1 -32 -3 -50 -2 -17 -1 -30 3 -27 4 2 6 -7 5 -21 0
-14 -5 -25 -9 -25 -5 0 -5 -5 -1 -12 11 -17 13 -59 3 -52 -15 9 -10 -13 7 -30
14 -15 14 -16 -3 -16 -12 0 -14 -3 -6 -8 8 -5 9 -13 3 -22 -5 -9 -5 -19 2 -27
8 -10 7 -13 -3 -13 -12 0 -12 -2 0 -9 8 -5 11 -16 8 -25 -4 -9 1 -20 11 -25 9
-6 13 -11 7 -11 -16 0 -15 -50 1 -50 12 0 13 -4 3 -22 -11 -21 -11 -22 4 -10
14 12 16 11 12 -7 -2 -14 1 -21 11 -21 8 0 14 -4 14 -8 0 -4 9 -8 20 -9 11 -1
20 4 20 10 0 8 4 7 9 -2 7 -12 13 -12 24 -3 7 7 16 10 19 7 3 -3 11 1 18 10 7
8 19 15 26 15 8 0 14 6 14 13 0 8 4 7 10 -3 6 -10 10 -11 10 -2 0 6 7 12 16
12 9 0 12 5 8 13 -5 8 -3 8 9 -2 14 -11 18 -11 23 3 3 9 10 13 15 10 5 -3 9 0
9 5 0 6 11 11 25 11 13 0 29 8 34 18 7 13 20 18 40 17 25 -1 29 1 19 12 -9 11
-7 12 7 7 13 -5 16 -4 11 4 -4 7 -2 10 7 7 7 -3 21 3 31 14 10 11 23 18 27 15
5 -3 9 -1 9 5 0 6 7 7 17 4 11 -4 14 -3 9 5 -4 7 -1 12 8 12 9 0 16 5 16 11 0
5 5 7 10 4 6 -3 10 1 10 9 0 9 3 15 8 15 20 -3 32 2 32 15 0 8 6 17 13 19 9 4
8 6 -2 6 -11 1 -11 4 0 18 12 14 12 16 0 8 -11 -6 -13 -4 -8 8 3 9 1 19 -5 23
-7 5 -8 2 -3 -6 5 -9 4 -11 -4 -6 -9 6 -9 11 1 24 10 12 10 14 1 8 -8 -4 -13
-1 -13 9 0 10 -5 13 -12 9 -7 -4 -10 -4 -6 1 4 4 3 14 -4 22 -9 11 -7 12 7 7
13 -5 16 -4 11 4 -4 7 -14 12 -22 12 -8 0 -13 4 -9 9 3 5 0 15 -7 23 -7 7 -14
20 -16 28 -2 8 -8 17 -13 18 -5 2 -9 12 -9 23 0 10 -6 19 -12 19 -9 0 -8 4 2
10 11 7 11 10 2 10 -7 0 -10 5 -7 10 4 6 2 9 -3 8 -6 -2 -10 -1 -9 2 2 16 -26
50 -36 43 -8 -4 -8 -2 1 9 10 13 10 18 1 24 -8 5 -9 3 -4 -6 5 -9 4 -11 -4 -6
-9 6 -9 11 -1 21 8 9 7 14 -5 18 -9 4 -12 13 -8 24 6 15 4 16 -8 6 -13 -11
-15 -8 -12 20 4 26 2 29 -7 17 -10 -12 -11 -11 -7 7 3 12 2 22 -2 21 -24 -3
-32 4 -26 22 4 12 2 20 -5 20 -6 0 -9 4 -6 9 3 5 -1 14 -9 21 -8 7 -15 21 -15
31 0 10 -8 23 -17 29 -16 10 -16 11 2 6 18 -6 18 -4 -3 13 -15 13 -18 21 -10
24 10 4 10 6 0 6 -7 1 -10 6 -7 11 4 6 1 9 -6 8 -7 -2 -14 3 -15 10 -1 6 -3
15 -4 20 -1 4 -2 11 -1 16 1 5 -4 6 -12 3 -10 -4 -13 1 -9 19 3 16 -1 26 -13
30 -13 5 -14 9 -3 15 10 6 8 9 -7 9 -17 0 -17 2 -5 10 13 8 12 10 -4 10 -15 0
-16 3 -7 14 9 11 9 16 0 22 -8 5 -9 3 -4 -6 6 -9 4 -11 -4 -5 -7 4 -11 18 -9
30 3 14 1 22 -6 19 -6 -2 -20 10 -30 27 -10 18 -14 29 -7 25 6 -4 11 -2 11 4
0 6 -7 13 -15 16 -8 4 -15 10 -15 16 0 5 5 6 12 2 7 -4 8 -3 4 4 -4 7 -13 12
-21 12 -8 0 -11 7 -8 20 4 16 2 19 -13 14 -18 -5 -18 -5 -1 6 9 6 17 19 18 28
0 14 2 13 8 -3 5 -11 6 -26 4 -32 -6 -16 9 -17 23 -3 8 8 10 2 9 -20 -1 -16 3
-30 9 -30 12 0 42 -41 38 -52 -1 -5 3 -8 9 -8 5 0 7 -4 4 -10 -3 -5 -1 -10 5
-10 6 0 8 -4 5 -10 -3 -5 2 -10 12 -10 15 0 16 -2 3 -10 -12 -8 -12 -10 -1
-10 8 0 11 -3 8 -6 -4 -4 6 -18 21 -30 15 -13 27 -27 27 -31 0 -18 28 -72 34
-69 4 3 13 -5 21 -17 11 -19 11 -21 -1 -12 -8 6 -6 2 4 -7 11 -10 15 -18 11
-18 -5 0 2 -7 14 -16 12 -8 20 -19 17 -24 -8 -13 6 -41 18 -33 6 4 8 0 4 -10
-4 -10 -2 -16 6 -14 7 1 12 -9 11 -25 0 -19 3 -24 11 -18 14 12 25 3 19 -15
-3 -7 1 -15 9 -18 14 -5 47 -61 47 -79 0 -5 6 -16 13 -23 30 -34 35 -43 30
-49 -4 -3 -1 -6 6 -6 7 0 11 -7 8 -15 -4 -8 -1 -17 5 -21 7 -5 8 -2 3 6 -5 9
-4 11 3 6 7 -4 12 -16 12 -28 0 -13 5 -18 14 -15 10 4 12 0 9 -14 -3 -11 0
-19 6 -19 7 0 9 5 5 12 -4 7 -3 8 5 4 9 -6 9 -11 0 -22 -9 -11 -8 -14 5 -14
10 0 14 -4 11 -10 -3 -5 -1 -10 5 -10 6 0 9 -4 5 -9 -3 -5 5 -13 17 -17 22 -7
22 -7 3 -15 -17 -6 -17 -8 -2 -8 9 -1 17 -9 17 -19 0 -9 9 -23 21 -30 12 -8
18 -19 15 -28 -3 -8 1 -14 10 -14 8 0 13 -4 10 -9 -3 -5 1 -12 10 -15 9 -4 14
-13 10 -21 -3 -9 0 -15 8 -15 7 0 16 -14 20 -30 3 -17 9 -30 13 -29 20 3 24
-2 13 -16 -10 -12 -8 -14 9 -10 11 2 20 1 19 -3 -4 -11 26 -72 35 -72 5 0 5
-4 2 -10 -3 -5 -1 -10 5 -10 7 0 10 -6 7 -14 -3 -8 1 -17 10 -20 9 -4 13 -9
10 -12 -9 -9 16 -33 28 -26 6 2 5 -1 -1 -7 -9 -10 -6 -19 13 -37 14 -14 22
-31 19 -39 -3 -10 0 -12 11 -8 11 4 14 2 9 -5 -4 -7 -2 -12 6 -12 9 0 9 -3 -2
-10 -13 -8 -13 -10 2 -10 9 0 20 -9 23 -20 4 -11 11 -18 16 -14 5 3 9 2 8 -3
-4 -26 2 -44 14 -37 7 5 6 0 -3 -11 -8 -10 -10 -16 -5 -13 6 3 19 -4 30 -15
12 -11 14 -17 5 -13 -9 5 -8 2 3 -7 9 -8 17 -20 17 -26 0 -17 26 -42 35 -33 4
4 2 -4 -5 -17 -8 -15 -8 -21 -1 -17 6 4 11 2 11 -4 0 -6 5 -8 10 -5 6 4 10 -5
10 -19 0 -17 5 -26 16 -26 10 0 14 -5 10 -16 -4 -10 -2 -13 6 -8 8 5 9 2 5
-10 -5 -12 0 -19 16 -26 12 -5 18 -9 12 -10 -5 0 -4 -4 3 -9 8 -5 15 -20 15
-34 2 -18 5 -23 14 -16 7 7 14 6 18 -1 3 -5 1 -10 -6 -10 -7 0 -5 -6 6 -13 11
-9 15 -19 10 -27 -5 -9 -4 -11 3 -6 7 4 12 2 12 -4 0 -6 5 -8 13 -4 7 5 6 0
-3 -11 -9 -11 -10 -16 -2 -11 7 4 12 1 12 -9 0 -9 5 -13 10 -10 9 5 15 -16 11
-38 -1 -5 3 -6 9 -2 5 3 10 -1 10 -9 0 -9 4 -16 9 -16 5 0 14 -13 21 -30 7
-16 16 -30 21 -30 5 0 9 -5 9 -11 0 -7 8 -18 18 -25 16 -13 16 -14 -1 -8 -15
5 -13 1 7 -21 14 -15 23 -31 20 -36 -3 -5 2 -6 10 -3 11 4 14 0 11 -14 -2 -12
4 -27 13 -34 16 -12 16 -11 2 7 -14 19 -14 19 3 6 10 -8 16 -20 13 -27 -3 -7
7 -22 22 -34 20 -15 22 -18 7 -13 -15 4 -13 0 8 -17 16 -12 26 -29 23 -36 -5
-12 5 -18 25 -16 4 1 5 -8 2 -18 -4 -14 0 -20 11 -20 10 0 13 -5 9 -17 -4 -10
-2 -14 4 -10 12 7 26 -20 18 -33 -3 -4 2 -11 11 -14 10 -4 13 -2 8 6 -4 7 -3
8 4 4 6 -4 9 -13 5 -21 -3 -9 1 -15 11 -15 8 0 13 -6 10 -13 -6 -16 30 -59 42
-49 4 4 3 0 -4 -9 -11 -14 -8 -21 17 -45 16 -15 28 -31 25 -36 -3 -4 0 -8 6
-8 6 0 8 -4 5 -10 -3 -5 1 -10 9 -10 9 0 13 -7 11 -20 -2 -11 1 -23 7 -26 7
-5 8 -2 3 6 -6 9 -4 11 4 6 7 -5 10 -15 7 -23 -5 -11 -2 -13 10 -9 12 5 14 1
9 -15 -5 -15 -4 -19 4 -15 6 4 11 0 11 -9 0 -9 4 -14 9 -11 5 3 8 -2 7 -12 0
-9 4 -16 10 -15 7 1 10 -6 7 -17 -4 -14 0 -20 11 -20 10 0 14 -4 11 -10 -3 -5
-1 -10 5 -10 6 0 8 -4 5 -10 -3 -5 -1 -10 4 -10 6 0 11 -7 11 -16 0 -8 4 -13
9 -10 11 7 23 -22 14 -36 -3 -7 -1 -8 5 -4 7 4 12 1 12 -8 0 -9 6 -16 13 -16
8 0 7 -4 -3 -11 -12 -9 -11 -10 6 -6 13 3 21 -1 21 -9 0 -7 -5 -10 -11 -7 -6
4 -5 -1 3 -10 7 -9 17 -14 22 -11 5 3 9 -4 9 -15 0 -12 5 -21 11 -21 5 0 8 -4
5 -9 -6 -9 40 -76 52 -76 3 0 8 -9 10 -20 2 -11 5 -25 6 -32 1 -7 6 -16 11
-20 4 -4 5 -2 1 5 -4 6 -3 12 3 12 12 0 24 -37 16 -50 -4 -6 1 -7 11 -3 13 5
16 3 11 -10 -4 -11 -1 -17 8 -17 7 0 17 -5 21 -12 5 -7 3 -8 -7 -3 -8 5 -7 0
4 -12 9 -11 17 -25 17 -31 0 -7 5 -12 10 -12 6 0 10 -7 10 -15 0 -8 9 -23 20
-32 11 -10 20 -21 20 -26 0 -5 8 -16 18 -25 10 -10 12 -13 5 -8 -22 14 -15 -1
12 -29 14 -14 23 -25 19 -25 -3 0 2 -8 13 -17 10 -10 13 -14 6 -9 -10 6 -12 5
-8 -6 4 -9 16 -21 28 -27 13 -7 15 -10 4 -6 -10 3 -15 1 -12 -5 3 -6 14 -10
23 -10 14 0 14 -2 3 -9 -11 -7 -9 -10 9 -16 18 -6 20 -9 9 -16 -11 -7 -10 -9
4 -9 10 0 15 -4 12 -10 -3 -5 -1 -10 4 -10 6 0 10 -3 10 -7 -1 -5 -1 -15 0
-23 1 -13 2 -13 11 0 8 12 10 11 10 -7 0 -13 5 -23 11 -23 5 0 7 -4 4 -10 -3
-5 -1 -10 5 -10 7 0 9 -7 6 -16 -4 -10 -2 -13 6 -8 7 5 9 2 5 -9 -4 -12 -2
-14 10 -10 10 4 14 2 9 -5 -3 -6 5 -22 19 -36 14 -14 21 -26 14 -26 -7 0 -2
-8 9 -19 12 -10 22 -24 22 -30 0 -7 7 -19 15 -28 8 -8 12 -20 8 -26 -4 -8 -2
-8 9 1 13 10 15 9 13 -12 -3 -19 1 -23 13 -18 15 5 15 4 3 -12 -13 -15 -12
-18 7 -22 14 -4 19 -11 15 -22 -4 -10 -2 -13 5 -8 7 4 12 1 12 -8 0 -9 5 -16
10 -16 6 0 10 -9 10 -21 0 -11 5 -17 10 -14 8 5 15 -21 12 -46 -1 -4 9 -5 21
-2 18 4 19 3 7 -6 -10 -7 -11 -11 -2 -11 6 0 12 -5 12 -11 0 -6 11 -20 26 -31
14 -11 23 -23 19 -26 -3 -3 -12 3 -21 14 -14 18 -15 18 -4 -4 6 -13 18 -26 26
-29 8 -3 14 -13 14 -22 0 -10 7 -26 16 -37 8 -10 13 -14 10 -7 -4 6 -2 15 4
18 6 4 9 3 8 -2 -1 -4 1 -23 5 -42 6 -29 9 -32 22 -21 13 11 14 10 9 -3 -3 -9
-2 -22 2 -29 5 -7 9 -20 9 -28 0 -9 7 -14 19 -12 11 2 15 -1 11 -7 -3 -6 -1
-11 5 -11 7 0 9 -7 6 -16 -3 -8 -2 -12 4 -9 9 6 14 -8 11 -27 0 -5 4 -8 10 -8
5 0 7 -5 3 -12 -5 -8 -2 -9 11 -4 16 6 16 4 4 -11 -12 -15 -12 -16 7 -11 16 4
20 1 19 -16 -1 -12 7 -25 19 -31 13 -7 21 -20 20 -33 -1 -16 4 -22 20 -23 11
0 16 -3 9 -5 -8 -4 -5 -12 8 -25 11 -11 18 -27 15 -35 -3 -8 1 -14 9 -14 8 0
14 -3 13 -7 -1 -5 2 -18 6 -31 6 -17 13 -21 29 -17 12 4 17 3 11 -2 -6 -4 -11
-16 -11 -25 0 -13 4 -15 13 -7 8 7 14 6 20 -2 4 -8 3 -9 -4 -5 -17 10 -15 -3
3 -21 8 -8 12 -19 9 -25 -4 -7 -2 -8 4 -4 7 4 12 2 12 -3 0 -6 3 -10 8 -10 19
3 23 -2 12 -16 -11 -13 -10 -14 5 -9 13 5 16 4 11 -4 -4 -7 -2 -12 4 -12 6 0
8 -6 4 -12 -4 -8 -3 -10 2 -5 5 5 9 13 9 18 0 12 20 12 21 -1 4 -31 6 -33 14
-12 5 12 17 22 25 22 10 0 13 5 9 13 -6 10 -4 10 7 0 15 -15 33 -17 25 -4 -7
11 20 34 32 27 5 -3 17 3 27 14 10 11 23 16 29 13 6 -4 20 -9 31 -10 l20 -3
-20 16 c-18 15 -18 16 -1 10 14 -5 17 -2 12 11 -5 15 -4 15 9 -1 14 -18 20
-15 16 7 -1 5 3 6 8 3 5 -3 11 0 14 8 4 9 16 13 32 12 21 -3 25 0 20 18 -2 11
-2 15 1 9 7 -16 34 -17 34 -2 0 5 -5 7 -12 3 -6 -4 -8 -3 -5 3 4 6 18 9 33 7
20 -2 24 1 20 13 -5 13 -4 14 9 3 14 -11 13 -15 -7 -29 -22 -15 -26 -17 -48
-20 -5 0 -7 -9 -4 -18 4 -13 3 -14 -3 -5 -7 10 -14 8 -28 -8 -10 -11 -22 -17
-28 -13 -6 4 -8 0 -4 -10 4 -11 2 -14 -8 -10 -9 3 -18 -2 -21 -12 -5 -13 -9
-14 -15 -3 -7 10 -9 11 -9 0 0 -7 -4 -10 -10 -7 -5 3 -10 -1 -10 -10 0 -9 -5
-13 -10 -10 -6 4 -8 10 -5 15 3 5 0 12 -6 16 -8 5 -9 3 -4 -7 6 -11 5 -11 -5
-2 -13 12 -18 9 -48 -29 -11 -13 -11 -18 0 -24 7 -4 10 -3 5 1 -7 8 20 45 33
45 4 0 10 -9 13 -21 3 -12 3 -18 0 -15 -9 9 -44 -14 -38 -24 3 -6 0 -7 -8 -4
-8 3 -25 -6 -38 -20 -19 -20 -27 -22 -38 -13 -12 9 -13 9 -7 0 4 -8 2 -13 -4
-13 -6 0 -8 -5 -5 -11 4 -6 0 -9 -11 -7 -11 2 -18 -2 -17 -9 1 -6 -4 -14 -13
-17 -10 -4 -13 -1 -9 7 4 6 0 4 -8 -5 -8 -10 -19 -18 -26 -18 -6 0 -11 -5 -11
-11 0 -5 5 -7 12 -3 6 4 8 3 5 -4 -4 -5 -18 -9 -32 -8 -13 2 -23 0 -21 -3 2
-3 -6 -15 -17 -26 -11 -12 -17 -14 -13 -5 5 9 2 8 -7 -2 -8 -10 -17 -15 -20
-11 -4 3 -9 -2 -13 -11 -3 -9 -10 -13 -15 -10 -5 3 -12 -2 -15 -10 -3 -9 -10
-13 -15 -10 -5 3 -9 0 -9 -6 0 -6 -5 -8 -10 -5 -6 3 -13 -1 -16 -10 -4 -9 -13
-14 -20 -11 -8 3 -14 1 -14 -5 0 -6 -5 -7 -10 -4 -6 4 -9 1 -8 -5 2 -7 -6 -14
-17 -16 -11 -1 -24 -9 -30 -16 -15 -19 -60 -55 -52 -42 3 6 0 11 -8 11 -8 0
-12 -4 -9 -9 10 -16 -7 -30 -22 -17 -12 10 -13 9 -8 -6 5 -13 4 -16 -4 -11 -7
4 -12 2 -12 -4 0 -10 -48 -35 -63 -32 -4 1 -6 -1 -6 -5 3 -20 -2 -26 -11 -13
-8 13 -10 12 -10 -3 0 -10 -4 -15 -10 -12 -5 3 -10 1 -10 -5 0 -7 -7 -9 -16
-6 -8 3 -13 2 -10 -3 3 -5 -6 -17 -20 -26 -18 -12 -24 -13 -19 -4 4 8 -2 4
-12 -9 -10 -13 -29 -24 -41 -25 -16 -1 -21 -6 -17 -16 3 -9 3 -12 -1 -8 -4 4
-13 2 -21 -4 -7 -6 -13 -8 -13 -5 0 4 -6 1 -14 -6 -8 -7 -12 -16 -10 -20 2 -3
-5 -4 -16 -1 -13 4 -20 0 -20 -10 0 -8 -12 -18 -27 -22 -16 -3 -36 -13 -45
-22 -10 -9 -22 -12 -30 -7 -9 5 -8 2 2 -11 14 -17 13 -18 -4 -12 -14 6 -17 4
-12 -10 6 -14 4 -15 -5 -6 -9 9 -15 8 -26 -3 -8 -8 -19 -11 -25 -8 -7 4 -8 2
-4 -4 4 -7 2 -12 -4 -12 -6 0 -8 -5 -4 -12 4 -6 3 -8 -3 -5 -6 4 -21 -2 -34
-12 -13 -10 -30 -16 -38 -13 -8 2 -11 0 -8 -6 4 -5 -1 -16 -10 -23 -14 -12
-16 -12 -9 0 6 9 5 12 -3 10 -7 -3 -11 -8 -9 -13 2 -4 -14 -15 -35 -25 -20 -9
-34 -21 -30 -26 5 -4 -2 -6 -14 -3 -16 4 -20 2 -16 -8 3 -9 -2 -14 -16 -14
-12 0 -21 -5 -21 -11 0 -6 -7 -8 -16 -5 -8 3 -12 2 -9 -4 6 -9 -9 -15 -29 -11
-5 1 -4 -4 2 -12 10 -12 8 -14 -13 -12 -23 3 -30 -5 -26 -28 1 -5 -3 -6 -9 -2
-6 3 -8 12 -4 18 3 7 -2 3 -11 -8 -9 -11 -20 -20 -26 -20 -5 0 -14 -7 -19 -15
-5 -8 -10 -11 -10 -6 0 5 -9 -3 -21 -18 -11 -14 -24 -24 -29 -21 -12 8 -41 -6
-34 -16 3 -5 -2 -9 -10 -9 -9 0 -16 -5 -16 -11 0 -6 -6 -9 -12 -6 -7 2 -19 -5
-26 -17 -13 -20 -13 -20 -8 -1 l6 20 -16 -20 c-8 -11 -20 -19 -25 -17 -5 1 -9
-3 -9 -9 0 -5 -5 -7 -10 -4 -6 4 -9 1 -8 -7 2 -7 -3 -12 -9 -10 -7 1 -13 -2
-13 -8 0 -6 -6 -9 -12 -8 -7 2 -12 -3 -10 -10 1 -8 -2 -11 -7 -8 -5 4 -15 -2
-21 -11 -11 -16 -11 -16 -6 2 6 19 5 19 -7 3 -8 -10 -17 -14 -21 -10 -4 4 -6
3 -4 -3 1 -5 0 -10 -4 -10 -4 0 -14 -9 -23 -20 -9 -11 -13 -14 -10 -7 6 12 3
12 -16 2 -31 -16 -39 -25 -16 -17 11 4 16 3 12 -3 -3 -6 -13 -10 -21 -10 -8 0
-14 -6 -14 -12 0 -9 -4 -8 -10 2 -8 13 -10 12 -10 -3 0 -10 -4 -15 -10 -12 -5
3 -10 1 -10 -4 0 -6 -6 -10 -12 -9 -7 2 -12 -2 -11 -8 1 -7 -6 -10 -18 -7 -13
4 -19 1 -17 -8 2 -8 -7 -15 -20 -17 -12 -2 -20 -7 -17 -12 3 -4 -2 -11 -11
-14 -10 -4 -13 -2 -9 7 4 6 0 4 -8 -6 -8 -9 -19 -17 -26 -17 -6 0 -11 -5 -11
-12 0 -6 -3 -8 -7 -5 -3 4 -11 0 -17 -8 -6 -8 -21 -16 -32 -18 -22 -3 -56 -31
-48 -40 3 -2 -2 -7 -11 -11 -11 -4 -14 -2 -10 7 4 6 1 5 -7 -3 -7 -9 -31 -25
-53 -37 -22 -11 -39 -26 -38 -31 2 -6 -6 -9 -17 -7 -10 2 -25 -4 -32 -13 -12
-16 -11 -16 7 -2 17 12 18 12 7 0 -13 -15 -17 -17 -54 -19 -12 0 -18 -4 -15
-8 9 -8 -31 -36 -42 -29 -5 3 -8 -2 -7 -12 0 -11 -5 -16 -14 -13 -8 2 -25 4
-37 4 -13 1 -23 7 -23 14 0 7 -13 26 -28 41 -20 19 -21 21 -3 7 l24 -20 -19
27 c-10 15 -27 30 -38 34 -15 5 -16 8 -5 15 10 6 11 9 2 9 -7 0 -13 9 -13 21
0 11 -4 18 -9 15 -4 -3 -13 5 -19 19 -8 18 -8 25 1 29 7 3 3 4 -8 3 -12 -1
-19 3 -17 12 2 8 -3 11 -12 8 -10 -4 -13 1 -11 18 1 14 -1 23 -4 21 -3 -2 -12
2 -19 10 -8 9 -9 14 -2 14 6 0 8 5 5 10 -4 6 -11 8 -16 5 -5 -4 -9 1 -9 9 0 9
-5 16 -11 16 -7 0 -9 9 -6 21 4 15 2 19 -9 15 -8 -3 -14 -1 -14 4 0 6 6 10 13
11 6 0 1 4 -11 10 -13 5 -22 14 -20 21 3 7 -7 23 -20 35 -14 13 -22 23 -18 23
3 0 0 10 -9 23 -8 13 -12 28 -8 32 5 5 1 4 -7 -2 -13 -10 -16 -8 -17 10 -1 12
-9 27 -17 33 -9 6 -13 14 -9 17 3 4 1 7 -6 7 -7 0 -9 5 -6 10 3 6 -1 10 -9 10
-9 0 -13 7 -11 19 3 15 -1 18 -12 14 -12 -5 -14 -3 -8 7 5 8 1 18 -10 27 -14
9 -15 13 -4 13 8 1 3 7 -11 15 -14 7 -24 16 -22 19 6 15 1 26 -12 26 -8 0 -12
9 -11 25 2 14 -1 23 -5 20 -13 -8 -43 42 -34 57 4 7 4 10 -1 6 -11 -10 -47 33
-41 49 5 12 -7 18 -28 14 -5 -1 -4 5 4 13 10 14 10 16 -5 16 -11 0 -15 5 -11
16 3 8 2 12 -4 9 -6 -3 -10 3 -10 14 0 11 -9 26 -20 34 -11 8 -17 17 -13 20 3
4 1 7 -6 7 -7 0 -10 4 -7 9 3 5 -1 12 -10 15 -8 3 -12 10 -9 16 3 6 -1 13 -9
16 -9 3 -13 10 -10 15 3 5 0 9 -5 9 -6 0 -11 7 -11 15 0 8 -4 15 -10 15 -5 0
-7 7 -4 15 5 11 2 13 -10 9 -9 -3 -16 -1 -16 5 0 6 6 11 13 11 8 0 7 3 -3 9
-8 6 -18 7 -23 4 -5 -3 -6 4 -2 16 4 15 3 21 -7 19 -7 -2 -14 7 -16 20 -2 12
-8 20 -13 16 -5 -3 -9 -2 -8 3 4 22 -2 35 -14 30 -9 -3 -13 3 -13 17 1 11 -4
20 -11 19 -7 -2 -10 6 -8 17 2 13 -2 20 -11 20 -9 0 -14 7 -12 17 2 10 -2 18
-9 18 -6 0 -15 4 -20 9 -5 5 -3 6 5 2 16 -10 15 2 -2 19 -7 8 -17 11 -20 7 -4
-3 -4 1 0 11 3 9 1 17 -4 17 -11 0 -28 38 -24 54 2 5 -4 6 -11 3 -9 -3 -14 1
-13 11 0 10 -5 16 -13 14 -8 -2 -11 3 -8 13 4 8 3 15 -1 15 -4 0 -12 10 -17
23 -6 12 -17 21 -25 19 -8 -2 -12 0 -7 4 4 4 0 19 -10 33 -16 25 -16 26 3 11
18 -14 18 -14 1 6 -9 11 -14 24 -10 28 5 4 1 6 -7 4 -8 -2 -14 3 -13 10 2 6
-5 12 -15 12 -14 0 -15 2 -2 10 13 8 13 10 -2 10 -12 0 -15 5 -11 17 4 11 3
14 -5 9 -8 -5 -12 0 -12 13 0 12 -7 21 -16 21 -8 0 -12 4 -9 10 3 6 1 10 -5
10 -6 0 -8 4 -5 10 3 6 -2 10 -12 10 -15 0 -16 2 -3 10 10 6 11 10 3 10 -7 0
-13 6 -13 14 0 8 -9 21 -21 29 -15 11 -17 16 -7 20 8 4 7 6 -5 6 -10 1 -15 6
-12 11 3 6 2 10 -4 10 -6 0 -8 7 -4 15 3 9 2 15 -3 14 -5 -1 -16 -1 -24 0 -13
1 -13 2 0 11 13 8 12 10 -2 10 -12 0 -18 8 -18 24 0 13 -7 27 -16 30 -9 4 -14
13 -10 22 3 8 2 12 -4 9 -9 -6 -14 8 -11 28 0 4 -9 7 -20 7 -17 0 -19 3 -11
13 9 10 6 17 -8 27 -11 8 -20 22 -20 32 0 9 -5 20 -12 24 -7 5 -8 3 -3 -6 5
-8 4 -11 -3 -6 -6 3 -9 15 -7 26 2 12 0 18 -6 15 -5 -4 -9 1 -9 9 0 9 -4 16
-10 16 -5 0 -6 7 -3 17 4 11 3 14 -5 9 -7 -4 -12 -2 -12 4 0 6 -5 8 -11 4 -8
-4 -9 1 -4 16 5 17 4 21 -6 15 -9 -6 -11 -3 -5 10 5 14 4 15 -7 7 -10 -9 -12
-5 -11 16 2 39 13 59 36 65 11 3 17 10 13 16 -3 6 -1 11 4 11 6 0 13 0 16 0
12 0 41 36 36 45 -2 6 2 4 11 -3 14 -11 18 -10 25 3 5 9 17 17 26 19 9 1 29
13 44 27 16 13 33 24 39 24 16 0 44 31 36 40 -4 4 -2 6 3 5 27 -6 47 1 42 14
-4 10 0 14 14 11 12 -3 19 2 19 12 0 12 3 13 13 4 11 -8 19 -5 35 13 11 13 18
27 15 30 -3 3 4 4 16 1 11 -2 21 1 21 6 0 6 4 7 10 4 6 -4 7 1 3 11 -4 12 -2
15 8 12 7 -2 20 3 29 12 8 9 13 11 10 5 -3 -6 2 -3 11 7 9 9 19 14 23 11 3 -3
8 2 12 11 3 9 10 16 16 16 5 0 6 -6 3 -12 -4 -7 0 -5 8 4 8 10 18 14 22 10 5
-4 6 -2 2 3 -3 6 -2 17 4 25 6 11 9 12 9 2 0 -7 5 -10 10 -7 6 4 7 12 3 18 -4
7 2 5 12 -3 10 -8 16 -10 12 -4 -4 7 3 14 18 18 14 4 23 11 20 16 -3 6 1 10 9
10 9 0 16 5 16 10 0 6 8 10 18 8 10 -2 17 3 16 13 -1 11 6 15 22 13 13 -1 22
2 18 7 -3 5 0 9 7 9 6 0 18 8 26 18 8 10 11 11 7 2 -7 -13 -5 -13 9 -1 9 7 14
18 10 25 -4 6 0 6 9 -2 14 -11 20 -8 42 20 17 21 24 26 20 13 -7 -20 -7 -20 9
0 8 11 13 24 10 29 -4 5 -1 6 6 2 7 -5 18 0 26 10 7 11 17 16 21 11 4 -4 2 -7
-4 -7 -7 0 -12 -6 -12 -12 1 -7 10 -2 20 11 11 13 20 19 20 15 0 -5 7 0 15 10
8 11 18 17 21 13 4 -4 18 5 31 19 12 14 28 22 33 19 6 -3 10 -2 10 4 0 5 9 13
20 16 11 3 20 13 20 21 0 8 5 12 10 9 6 -3 10 -1 10 5 0 6 5 8 10 5 6 -3 13 1
16 9 3 9 10 13 15 10 5 -3 12 2 15 10 3 9 10 13 15 10 5 -3 9 0 9 6 0 6 4 9
10 5 5 -3 18 3 30 15 11 11 25 20 31 20 5 0 7 5 4 10 -3 6 3 10 14 10 11 0 23
5 26 10 4 6 11 8 16 5 5 -4 6 2 2 12 -3 10 -3 15 2 11 4 -4 14 0 22 8 9 8 22
13 30 10 8 -3 12 -2 9 3 -3 5 4 11 15 14 12 3 18 10 14 17 -3 6 -3 10 2 9 29
-5 45 2 38 19 -5 13 -4 14 6 5 10 -10 16 -9 28 5 9 9 28 23 44 31 15 8 27 21
27 29 0 12 2 12 17 1 11 -10 14 -10 9 -1 -4 7 -1 12 9 12 10 0 13 5 9 12 -5 8
0 9 14 6 12 -4 20 -2 16 3 -3 5 0 9 6 9 6 0 9 4 6 9 -4 5 4 7 16 4 19 -4 20
-3 8 6 -13 9 -12 11 6 11 11 0 29 7 40 16 18 14 18 15 -6 4 -24 -11 -24 -10
-5 5 11 8 25 13 32 11 7 -3 13 2 13 10 0 10 6 14 14 11 10 -4 13 -1 9 9 -4 10
2 17 16 21 11 3 21 10 21 15 0 5 5 6 10 3 6 -3 13 1 16 9 3 9 11 13 17 9 6 -4
8 0 4 10 -4 12 -2 14 10 10 12 -5 15 -2 11 9 -5 11 0 14 19 10 17 -3 24 -1 19
6 -3 6 3 13 14 17 11 4 18 11 14 16 -3 6 4 13 15 16 17 4 19 8 10 19 -10 12
-8 13 6 7 14 -5 17 -3 12 10 -3 9 -1 19 5 23 7 4 8 3 4 -4 -4 -7 -3 -12 3 -12
6 0 13 11 17 25 3 13 11 23 17 22 6 -1 11 5 12 13 0 8 8 14 18 12 12 -2 15 2
10 14 -5 13 -2 16 9 12 12 -5 15 1 15 33 0 21 3 42 8 46 4 5 5 3 1 -4 -3 -6
-1 -15 5 -19 8 -4 9 -3 5 4 -4 7 -1 12 6 12 10 0 10 2 -1 9 -7 5 -10 14 -7 20
4 6 0 14 -8 17 -22 8 -20 25 2 17 14 -5 13 -3 -3 10 -11 8 -24 13 -29 10 -5
-4 -6 -1 -2 6 4 6 12 9 17 6 5 -4 9 -2 9 3 0 5 -9 12 -20 15 -14 4 -18 10 -13
23 4 11 3 15 -5 10 -6 -3 -14 -1 -18 5 -4 8 -3 9 4 5 7 -4 12 -2 12 3 0 6 -4
11 -10 11 -5 0 -10 5 -10 11 0 5 5 7 12 3 7 -4 8 -3 4 5 -4 6 -11 9 -15 7 -4
-3 -13 -1 -21 5 -12 7 -11 9 4 9 18 0 19 1 3 13 -10 6 -20 25 -23 42 -3 16
-10 33 -16 36 -7 4 -5 9 3 12 11 4 11 6 1 6 -7 1 -10 7 -7 14 4 6 -1 3 -9 -7
-18 -23 -21 -14 -6 15 8 15 7 23 -3 34 -8 8 -18 11 -22 7 -5 -4 -4 0 1 8 15
26 14 43 -1 30 -11 -9 -12 -7 -8 12 4 18 3 20 -6 8 -6 -8 -11 -10 -11 -4 0 5
4 14 10 20 6 6 5 15 -1 24 -9 13 -10 12 -5 -2 9 -30 -1 -20 -24 23 -11 23 -19
48 -16 56 3 8 2 11 -4 8 -5 -3 -14 5 -21 17 -10 20 -10 22 2 13 8 -5 4 0 -9
11 -14 12 -22 26 -18 32 3 6 2 12 -4 14 -5 1 -11 15 -12 30 -1 15 -6 24 -11
21 -5 -3 -6 -11 -4 -17 3 -7 -1 -13 -8 -13 -10 0 -11 5 -4 18 12 23 12 39 -2
39 -5 0 -7 -4 -4 -10 3 -6 -1 -7 -10 -3 -9 3 -13 9 -8 12 12 9 15 41 4 41 -5
0 -11 -6 -14 -12 -3 -7 -4 4 -2 25 2 28 -2 40 -14 45 -18 7 -41 27 -41 37 0 3
5 3 11 -1 7 -4 7 1 -1 16 -7 13 -17 19 -26 16 -9 -3 -12 -1 -9 4 3 6 1 10 -4
10 -6 0 -11 5 -11 11 0 8 5 8 15 -1 9 -7 15 -8 15 -2 0 12 -28 24 -40 17 -4
-3 -7 8 -6 25 2 31 -14 45 -33 29 -8 -6 -8 -5 -1 3 15 18 12 31 -6 24 -8 -3
-12 -2 -9 4 3 6 1 10 -6 10 -8 0 -7 5 2 17 12 15 12 16 -4 10 -15 -6 -17 -3
-11 15 5 16 3 20 -9 15 -12 -4 -14 -2 -10 10 4 11 2 14 -5 9 -8 -5 -12 1 -13
16 0 22 -1 22 -10 3 -8 -18 -9 -17 -6 6 3 22 0 25 -20 23 -13 -1 -23 2 -23 8
0 6 7 8 15 5 8 -4 17 -2 20 4 4 5 1 8 -7 7 -7 -2 -12 3 -10 11 2 11 0 12 -10
4 -20 -15 -50 -24 -43 -13 3 6 12 10 20 10 8 0 13 9 12 19 0 11 -5 17 -9 15
-5 -3 -6 -9 -4 -13 3 -4 -1 -8 -9 -8 -11 0 -12 5 -3 21 10 19 9 19 -5 8 -12
-10 -21 -11 -36 -2 -19 10 -25 7 -23 -12 1 -3 -5 -9 -14 -12 -8 -3 -12 -2 -9
4 3 6 -1 10 -9 10 -8 0 -18 -5 -22 -12 -5 -7 -2 -8 7 -3 10 6 11 5 3 -4 -6 -7
-21 -13 -33 -14 -13 -1 -27 -10 -33 -20 -8 -15 -12 -16 -26 -5 -9 7 -13 8 -9
2 4 -7 0 -15 -9 -18 -8 -3 -12 -11 -8 -17 4 -7 -1 -7 -16 1 -18 10 -21 9 -15
-1 6 -9 3 -11 -8 -6 -12 4 -14 2 -10 -10 4 -10 2 -14 -4 -10 -6 4 -14 0 -17
-9 -3 -8 -10 -13 -15 -9 -6 3 -13 0 -18 -7 -11 -18 -49 -47 -39 -30 7 11 4 11
-13 0 -12 -7 -21 -17 -21 -21 0 -5 -6 -7 -14 -4 -9 4 -17 -3 -21 -16 -4 -13
-8 -17 -11 -10 -4 10 -8 10 -19 0 -7 -7 -10 -16 -7 -21 3 -5 -2 -7 -11 -3 -10
3 -17 2 -17 -4 0 -6 -4 -7 -10 -4 -5 3 -10 -1 -10 -10 0 -9 -4 -14 -10 -10
-11 7 -39 -8 -91 -47 -20 -16 -42 -28 -49 -28 -6 0 -9 -4 -6 -9 3 -5 -1 -12
-10 -15 -10 -4 -13 -2 -8 7 4 6 -2 4 -13 -6 -11 -9 -23 -14 -27 -10 -4 4 -4 0
-1 -9 5 -13 2 -16 -14 -13 -13 2 -22 -3 -27 -17 -4 -13 -12 -18 -25 -15 -10 3
-22 0 -26 -5 -4 -7 -1 -8 8 -4 8 4 5 0 -5 -8 -11 -9 -23 -16 -28 -16 -4 0 -7
-6 -6 -12 2 -8 -5 -12 -16 -10 -11 2 -26 -4 -33 -14 -7 -10 -13 -14 -13 -9 0
5 -7 0 -16 -11 -8 -10 -13 -13 -9 -7 4 9 1 11 -9 7 -9 -3 -13 -11 -9 -17 4 -6
-2 -8 -15 -5 -12 3 -21 3 -20 -1 2 -20 -4 -29 -19 -27 -10 0 -17 -4 -16 -10 1
-6 -4 -11 -11 -11 -18 0 -86 -42 -86 -54 0 -5 -6 -8 -12 -7 -7 2 -12 -2 -11
-9 2 -7 -4 -10 -12 -7 -8 4 -15 1 -15 -6 0 -10 -4 -9 -16 0 -8 8 -14 9 -13 4
5 -25 -2 -36 -21 -31 -10 3 -18 2 -17 -2 1 -3 -2 -7 -6 -8 -5 -1 -17 -11 -26
-22 -19 -21 -37 -29 -26 -11 10 16 -1 11 -16 -7 -12 -14 -12 -16 0 -8 10 5 12
4 7 -3 -4 -7 -13 -12 -20 -12 -8 0 -19 -7 -26 -15 -7 -9 -20 -13 -28 -10 -10
3 -12 0 -8 -10 3 -8 2 -14 -2 -13 -4 1 -17 -3 -28 -10 -12 -6 -24 -8 -28 -5
-3 3 -6 -2 -6 -13 0 -16 -2 -17 -10 -4 -8 13 -11 11 -16 -7 -3 -12 -12 -19
-19 -17 -7 3 -16 0 -21 -7 -5 -8 -3 -10 6 -4 9 5 11 4 6 -4 -6 -9 -11 -9 -22
0 -11 9 -14 7 -14 -11 0 -18 -3 -20 -14 -11 -11 9 -16 9 -22 0 -5 -8 -3 -10 7
-4 8 4 5 -1 -6 -12 -11 -11 -27 -19 -35 -19 -8 1 -14 -4 -13 -11 2 -7 -6 -10
-16 -8 -11 2 -30 -9 -47 -27 -16 -16 -46 -37 -66 -45 -22 -9 -35 -20 -31 -26
4 -7 0 -8 -11 -4 -14 6 -17 3 -12 -8 4 -10 2 -14 -5 -9 -14 8 -60 -16 -53 -28
3 -5 2 -7 -3 -6 -17 6 -74 -25 -69 -38 3 -8 -2 -11 -15 -9 -11 2 -22 -2 -25
-10 -3 -8 -13 -11 -22 -8 -9 4 -14 3 -10 -2 8 -9 -19 -38 -29 -32 -11 7 -33
-19 -25 -29 4 -5 0 -3 -9 4 -13 10 -19 8 -33 -6 -9 -10 -13 -22 -9 -27 5 -4 2
-5 -5 -1 -8 5 -19 1 -28 -10 -9 -11 -13 -12 -9 -4 4 8 -3 4 -15 -10 -12 -14
-19 -20 -16 -13 4 6 1 15 -5 19 -8 4 -9 3 -5 -4 4 -7 2 -12 -4 -12 -6 0 -9 -4
-6 -9 7 -11 -22 -23 -35 -15 -5 3 -8 2 -7 -3 2 -4 -1 -10 -7 -12 -5 -2 -15
-11 -21 -19 -7 -9 -16 -12 -25 -7 -8 5 -11 5 -7 1 12 -14 -15 -35 -30 -24 -9
8 -11 7 -6 -7 5 -12 4 -16 -3 -12 -6 4 -13 0 -16 -8 -4 -8 -15 -12 -26 -10
-11 2 -20 1 -20 -3 3 -19 -2 -32 -12 -32 -5 0 -7 6 -3 13 5 8 3 8 -9 -2 -9 -7
-15 -17 -12 -21 2 -4 -7 -6 -21 -4 -22 2 -23 0 -12 -13 12 -15 11 -15 -10 -4
-12 6 -22 8 -21 4 4 -21 -2 -32 -15 -27 -8 3 -20 -3 -27 -14 -7 -12 -19 -18
-27 -14 -10 3 -13 1 -8 -6 3 -6 2 -13 -4 -17 -5 -3 -10 -1 -10 5 0 6 -5 8 -11
5 -6 -4 -8 -14 -4 -22 4 -13 3 -14 -9 -4 -12 10 -17 9 -25 -7 -6 -11 -29 -27
-51 -36 -22 -9 -40 -21 -40 -27 0 -5 -4 -7 -10 -4 -5 3 -10 1 -10 -4 0 -6 -7
-11 -16 -11 -8 0 -12 -5 -9 -11 4 -6 0 -9 -11 -7 -11 2 -18 -2 -17 -9 2 -7 -3
-10 -11 -7 -7 3 -16 -3 -20 -13 -6 -14 -9 -15 -15 -4 -7 10 -10 9 -16 -8 -3
-12 -11 -19 -16 -16 -5 4 -9 1 -9 -5 0 -6 -4 -8 -10 -5 -5 3 -10 1 -10 -5 0
-7 -7 -9 -16 -6 -8 3 -12 2 -9 -4 3 -6 1 -10 -5 -10 -6 0 -8 -4 -5 -10 3 -6
-1 -7 -9 -4 -10 4 -18 -1 -22 -10 -5 -13 -9 -14 -20 -5 -12 10 -13 8 -8 -7 4
-10 3 -16 -1 -12 -5 5 -15 -1 -23 -13 -9 -13 -21 -19 -34 -16 -11 3 -17 3 -14
0 8 -9 -22 -34 -43 -36 -11 0 -19 -6 -18 -12 1 -5 -4 -9 -11 -8 -6 2 -12 -2
-12 -8 0 -5 -4 -8 -9 -5 -5 3 -12 -1 -15 -10 -3 -9 -12 -14 -19 -11 -6 2 -21
-6 -32 -18 -12 -12 -27 -19 -34 -17 -9 3 -11 0 -6 -8 6 -10 4 -12 -9 -7 -10 4
-15 3 -11 -3 5 -9 -16 -15 -38 -11 -5 1 -6 -3 -2 -9 3 -6 11 -7 17 -4 7 4 8 2
4 -5 -4 -6 -11 -9 -16 -6 -5 3 -11 1 -15 -5 -4 -6 -11 -7 -17 -4 -8 5 -9 1 -4
-11 5 -14 4 -15 -7 -7 -10 8 -16 6 -25 -9 -7 -10 -21 -19 -33 -19 -13 0 -18
-4 -13 -12 5 -7 2 -9 -9 -5 -9 3 -18 -1 -21 -10 -4 -9 -13 -13 -22 -9 -14 5
-15 4 -5 -8 11 -13 9 -15 -8 -11 -13 2 -21 -1 -21 -10 0 -9 -6 -12 -17 -8 -11
4 -14 3 -9 -5 4 -7 1 -12 -9 -12 -10 0 -13 -5 -9 -12 5 -8 0 -7 -11 2 -10 8
-16 10 -12 3 4 -6 3 -14 -3 -18 -5 -3 -10 0 -10 7 -1 7 -6 3 -13 -10 -7 -12
-16 -19 -20 -16 -4 4 -7 2 -7 -5 0 -7 -4 -9 -10 -6 -5 3 -10 1 -10 -5 0 -7 -7
-9 -16 -6 -8 3 -13 2 -10 -3 3 -4 -9 -18 -27 -31 -26 -19 -29 -20 -17 -4 14
17 13 18 -1 7 -9 -7 -19 -10 -23 -6 -4 4 -4 0 -1 -9 5 -13 2 -16 -14 -13 -11
2 -20 1 -20 -3 3 -20 -2 -32 -11 -27 -15 9 -41 -15 -33 -29 4 -6 -2 -4 -12 4
-17 13 -18 13 -13 -1 5 -11 1 -16 -10 -15 -9 0 -16 -5 -14 -12 1 -8 -2 -11 -9
-7 -6 4 -23 -5 -39 -20 -15 -15 -31 -27 -34 -26 -20 3 -29 -2 -51 -25 -14 -15
-25 -21 -25 -15 0 7 -5 9 -10 6 -6 -4 -8 -10 -5 -15 3 -4 -2 -11 -11 -14 -10
-4 -13 -2 -9 7 4 6 0 4 -8 -5 -8 -10 -18 -14 -22 -10 -5 4 -5 -1 -2 -10 7 -21
-4 -23 -22 -5 -10 10 -11 8 -5 -8 4 -11 4 -17 -1 -13 -4 4 -13 1 -19 -8 -6 -8
-21 -16 -33 -16 -13 -1 -19 -7 -16 -15 4 -9 0 -11 -11 -7 -9 3 -16 1 -16 -6 0
-6 -4 -9 -9 -5 -6 3 -13 -1 -18 -8 -9 -15 -43 -31 -57 -28 -5 1 -3 -6 4 -16 8
-10 10 -15 6 -11 -5 4 -16 2 -24 -5 -13 -9 -14 -9 -8 1 4 6 2 12 -3 12 -6 0
-16 -9 -23 -19 -7 -11 -18 -17 -27 -13 -10 4 -13 1 -8 -12 4 -10 3 -15 -3 -11
-6 3 -10 2 -10 -4 0 -6 -7 -7 -17 -4 -12 5 -14 3 -8 -7 6 -10 4 -12 -8 -7 -9
3 -21 -1 -29 -11 -11 -13 -11 -14 1 -7 10 5 12 4 7 -4 -4 -6 -12 -9 -17 -5 -6
3 -17 -2 -25 -12 -9 -11 -13 -13 -9 -4 4 10 2 9 -8 -2 -8 -10 -17 -15 -20 -11
-4 3 -7 -1 -7 -10 0 -12 -8 -17 -26 -17 -14 0 -23 -4 -19 -10 3 -5 -1 -10 -9
-10 -9 0 -16 -5 -16 -10 0 -6 -6 -9 -13 -8 -6 2 -11 -2 -10 -8 1 -7 -5 -11
-15 -10 -9 0 -16 -4 -15 -10 1 -6 -9 -10 -23 -8 -19 2 -24 -1 -20 -12 3 -8 2
-12 -3 -9 -5 3 -13 0 -16 -6 -4 -5 -13 -8 -21 -5 -8 3 -13 0 -11 -7 1 -7 -6
-11 -15 -11 -10 1 -15 -2 -12 -7 3 -5 -3 -12 -13 -16 -10 -3 -26 -15 -37 -25
-10 -11 -24 -17 -32 -14 -8 3 -14 -1 -14 -9 0 -13 -18 -20 -42 -16 -5 0 -8 -5
-8 -13 0 -8 -5 -18 -12 -22 -7 -5 -9 -2 -4 7 4 8 1 6 -7 -4 -9 -10 -18 -18
-21 -19 -24 0 -45 -13 -49 -28 -3 -14 -11 -17 -26 -13 -15 4 -21 1 -19 -8 2
-8 -3 -13 -9 -11 -7 1 -13 -2 -13 -8 0 -6 -6 -9 -12 -8 -7 2 -12 -3 -10 -10 1
-7 -5 -12 -15 -10 -11 2 -17 -2 -15 -10 1 -8 -2 -11 -8 -7 -5 3 -18 1 -27 -4
-14 -8 -15 -11 -3 -11 8 -1 -1 -8 -20 -15 -19 -7 -29 -14 -21 -14 11 -1 11 -4
1 -16 -10 -12 -10 -15 4 -15 9 0 16 -5 16 -11 0 -5 -6 -7 -12 -4 -7 4 -1 -4
15 -17 15 -13 27 -29 27 -36 0 -7 5 -10 10 -7 6 3 10 -2 10 -12 0 -10 9 -25
19 -32 11 -8 17 -20 14 -28 -3 -8 -2 -13 3 -12 5 1 16 1 24 0 13 -1 13 -2 0
-11 -13 -8 -12 -10 3 -10 10 0 17 -8 17 -20 0 -12 7 -20 18 -20 14 0 15 -2 2
-10 -13 -8 -12 -10 3 -10 10 0 17 -8 17 -20 0 -12 7 -20 17 -20 9 0 14 -3 10
-6 -3 -4 4 -15 16 -26 12 -11 15 -17 7 -13 -8 4 -4 -2 9 -13 15 -12 21 -24 16
-32 -6 -9 -4 -11 4 -6 8 5 14 0 18 -13 3 -11 9 -18 14 -15 5 3 9 -4 9 -16 0
-12 5 -18 10 -15 6 4 10 -6 11 -22 0 -15 3 -23 6 -16 3 10 7 10 18 0 7 -7 11
-15 8 -19 -2 -5 1 -8 7 -8 7 0 9 -7 6 -16 -3 -8 -2 -13 2 -11 4 3 18 -7 32
-21 14 -14 18 -21 10 -16 -10 5 -9 2 2 -8 13 -12 15 -18 6 -21 -7 -3 -3 -6 9
-6 17 -1 21 -5 16 -18 -5 -12 -3 -14 7 -8 10 6 12 3 8 -13 -4 -12 -2 -20 3
-16 5 3 14 -6 21 -20 6 -14 16 -26 21 -26 14 0 36 -32 37 -53 0 -10 4 -16 9
-13 11 7 23 -22 16 -35 -4 -5 2 -6 11 -2 12 4 15 3 10 -5 -4 -7 -3 -12 2 -12
5 0 15 -11 22 -25 7 -13 18 -21 24 -18 6 4 4 -2 -4 -12 -8 -11 -10 -16 -3 -11
15 8 55 -52 46 -68 -4 -6 1 -5 10 3 15 12 17 11 17 -13 0 -16 4 -25 10 -21 6
3 10 -4 10 -17 0 -19 2 -20 11 -8 9 12 10 11 6 -7 -4 -16 -1 -20 11 -16 11 5
14 2 9 -10 -4 -11 -1 -17 9 -17 8 0 13 -4 10 -8 -3 -5 4 -16 15 -25 11 -10 18
-21 16 -25 -3 -4 5 -16 16 -27 11 -11 16 -14 12 -6 -6 10 -4 12 4 7 9 -6 9
-11 -1 -24 -7 -9 -8 -13 -2 -9 11 7 46 -28 37 -37 -4 -3 1 -6 11 -6 9 0 15 -4
12 -8 -8 -14 10 -33 32 -35 12 -1 22 -5 22 -9 0 -5 9 -4 21 3 12 6 25 7 30 2
5 -5 36 -8 70 -6 33 2 58 -1 55 -5 -3 -5 1 -9 9 -9 8 0 12 4 10 7 -3 4 6 8 20
8 14 0 23 -4 20 -8 -2 -3 2 -7 10 -7 8 0 12 4 9 9 -8 13 10 10 25 -4 11 -11
13 -10 7 2 -4 8 0 6 8 -4 12 -15 16 -16 16 -5 0 16 37 18 80 4 17 -6 21 -4 14
6 -6 10 -1 9 16 -2 19 -12 29 -14 43 -5 13 8 20 8 26 -3 7 -11 9 -11 14 0 4
12 7 11 16 -1 8 -12 11 -12 11 -1 0 10 3 11 13 2 10 -8 17 -7 25 1 9 9 12 9
12 -3 0 -12 2 -12 10 1 9 13 10 13 10 0 0 -13 1 -13 10 0 7 11 10 11 10 2 0
-9 5 -10 19 -2 14 7 21 6 24 -3 4 -9 6 -9 6 0 1 7 8 10 16 7 8 -4 12 -11 9
-18 -3 -6 1 -2 10 8 13 16 18 17 31 6 14 -11 18 -11 25 -1 5 9 9 10 11 2 2 -6
14 -13 27 -16 12 -2 20 0 17 4 -3 5 2 11 10 15 8 3 17 0 21 -5 3 -6 14 -9 24
-6 9 2 24 1 33 -4 10 -6 17 -4 21 7 6 15 8 15 25 0 11 -10 22 -13 25 -8 8 14
57 2 49 -12 -3 -6 0 -6 8 2 17 15 43 16 33 0 -5 -7 -3 -8 7 -3 18 12 149 13
149 1 0 -4 7 -3 15 4 12 10 15 10 15 0 0 -9 3 -10 13 -1 10 8 17 7 25 -1 9 -9
15 -9 24 0 15 15 32 16 22 1 -5 -8 -1 -8 14 0 11 6 34 9 52 7 25 -3 30 0 25
12 -4 12 -3 12 9 3 11 -9 15 -8 20 5 5 13 9 14 20 5 10 -8 16 -9 21 -1 3 6 11
7 17 4 7 -4 8 -2 4 5 -6 9 -12 9 -24 -1 -15 -12 -16 -11 -3 5 7 9 21 17 30 18
11 0 12 2 3 6 -10 4 -10 8 0 21 10 12 10 14 1 8 -7 -4 -13 -2 -13 3 0 6 4 11
8 11 5 0 9 7 9 15 0 9 -6 14 -14 11 -8 -3 -11 -1 -8 5 4 5 1 17 -7 26 -9 12
-9 15 0 9 6 -4 12 -2 12 3 0 6 -4 11 -10 11 -5 0 -10 9 -10 21 0 13 -4 18 -13
13 -7 -5 -7 -2 2 10 12 15 12 17 0 14 -8 -2 -13 3 -11 10 1 6 -3 12 -9 12 -6
0 -9 7 -5 15 3 8 -1 21 -9 29 -8 8 -16 25 -18 37 -2 13 -10 25 -18 27 -11 3
-11 1 1 -7 8 -6 10 -11 4 -11 -19 0 -24 13 -11 28 8 11 8 14 0 9 -7 -5 -16 5
-24 28 -7 19 -17 35 -21 35 -4 0 -8 12 -8 28 0 21 -2 24 -10 12 -8 -12 -10
-11 -10 8 0 12 -4 22 -10 22 -5 0 -10 9 -10 20 0 11 -5 20 -10 20 -6 0 -9 6
-8 13 2 6 -3 11 -11 9 -12 -3 -12 -1 0 14 9 12 9 15 2 10 -8 -4 -13 -2 -13 4
0 6 -4 8 -10 5 -6 -3 -7 1 -4 9 4 11 0 16 -10 16 -9 0 -16 6 -16 13 0 9 -3 8
-9 -2 -5 -7 -14 -10 -20 -7 -6 4 -11 2 -11 -4 0 -6 -4 -8 -10 -5 -6 3 -10 1
-10 -4 0 -6 -3 -10 -8 -10 -21 4 -43 -2 -38 -10 7 -11 -41 -24 -55 -16 -5 4
-8 1 -7 -7 2 -7 -3 -12 -9 -10 -7 1 -13 -4 -13 -10 0 -9 -4 -8 -10 2 -8 13
-10 12 -10 -3 0 -10 -5 -15 -10 -12 -6 3 -13 -1 -16 -10 -5 -13 -9 -13 -23 -3
-9 7 -13 8 -9 4 10 -11 -21 -35 -44 -36 -10 0 -18 -4 -18 -9 0 -4 -11 -7 -24
-6 -19 3 -23 -1 -18 -13 5 -15 4 -16 -13 -2 -10 8 -16 11 -13 5 3 -5 0 -16 -8
-23 -8 -7 -14 -10 -14 -5 0 4 -7 -2 -16 -13 -8 -10 -13 -13 -9 -6 3 6 2 12 -4
12 -5 0 -11 -4 -13 -10 -1 -5 -13 -11 -26 -13 -12 -2 -28 -10 -35 -17 -9 -11
-7 -11 8 0 18 14 19 14 7 -2 -8 -10 -20 -14 -29 -11 -12 5 -15 2 -11 -8 5 -12
-1 -14 -24 -11 -22 3 -29 1 -24 -7 5 -7 -4 -13 -23 -17 -17 -4 -28 -10 -25
-15 3 -5 -3 -6 -12 -2 -14 5 -16 3 -11 -13 7 -18 6 -18 -7 -1 -14 18 -15 17
-21 -4 -6 -17 -9 -19 -16 -8 -5 8 -9 9 -9 4 0 -14 -117 -68 -130 -60 -6 4 -10
3 -9 -2 5 -30 -2 -35 -23 -17 -19 15 -20 16 -9 2 11 -15 11 -18 -2 -18 -8 0
-18 -6 -20 -12 -4 -10 -6 -10 -6 0 -1 7 -5 11 -11 7 -5 -3 -8 -11 -6 -18 1 -7
1 -9 -1 -5 -3 4 -15 0 -28 -8 -13 -9 -28 -13 -34 -10 -5 3 -11 0 -14 -6 -2 -7
-8 -9 -13 -5 -5 5 -1 13 9 18 9 6 14 15 11 21 -4 6 -2 8 4 4 6 -3 22 5 37 20
21 20 29 23 40 14 12 -10 13 -8 10 8 -3 16 1 19 18 15 16 -3 18 -2 9 5 -11 7
-9 10 7 15 13 3 19 1 14 -5 -4 -7 -1 -8 6 -4 7 5 10 15 6 23 -4 13 -3 14 10 3
14 -12 19 -7 16 13 -1 5 3 6 9 2 5 -3 10 -1 10 5 0 6 5 8 10 5 6 -3 10 -1 10
5 0 7 7 9 16 6 8 -3 13 -2 10 3 -3 5 2 15 11 22 10 8 14 9 10 2 -4 -6 -3 -15
3 -18 6 -4 10 -3 9 2 -5 27 1 35 16 23 13 -11 14 -10 10 2 -4 9 4 22 22 33 27
18 28 18 13 -1 -14 -18 -14 -18 3 -5 9 7 17 21 17 30 0 13 2 13 9 2 6 -10 10
-10 16 -1 4 6 14 9 22 6 8 -3 11 -2 8 3 -3 5 -1 12 5 16 5 3 10 1 10 -4 0 -6
4 -11 10 -11 5 0 6 8 3 18 -5 13 -4 15 8 6 19 -14 51 -12 56 4 3 6 0 12 -7 12
-6 0 -9 -4 -5 -9 3 -6 -3 -9 -14 -8 -11 0 -17 6 -14 14 3 7 8 12 11 11 21 -2
32 4 32 17 0 8 3 14 8 14 23 -4 42 3 42 14 0 7 15 24 33 37 l32 23 -20 -24
-20 -24 26 23 c14 12 29 19 33 15 4 -4 4 1 0 11 -5 13 -4 17 3 13 6 -4 18 0
27 9 9 8 21 12 28 8 9 -5 8 -2 -1 9 -12 15 -12 17 1 12 8 -3 23 3 33 15 10 11
27 20 38 20 11 0 17 3 14 7 -10 9 43 34 56 26 6 -3 7 -1 3 5 -4 7 -2 12 4 12
6 0 8 5 4 13 -5 8 -2 7 9 -2 15 -12 17 -12 11 3 -4 12 0 16 15 16 13 0 25 9
31 23 5 12 9 16 9 8 1 -11 5 -10 17 5 8 10 13 14 10 8 -3 -6 1 -11 8 -11 7 0
13 7 12 15 -1 8 7 16 17 18 10 1 27 10 38 20 10 9 19 13 19 9 0 -5 6 -1 13 10
8 10 19 15 26 11 6 -4 11 -4 10 1 -3 20 2 34 11 28 9 -5 49 12 60 27 3 4 17 8
32 10 15 2 30 7 34 11 4 3 -3 4 -15 2 -12 -2 -19 0 -16 6 4 5 10 7 15 4 4 -3
11 1 13 7 4 10 6 10 6 0 1 -7 5 -11 10 -7 5 3 13 0 17 -6 4 -8 3 -9 -4 -5 -15
9 -16 -6 -1 -21 8 -8 7 -13 -2 -18 -8 -5 -10 -4 -5 3 5 8 1 10 -10 5 -15 -5
-15 -7 1 -16 14 -8 15 -11 4 -18 -12 -7 -11 -9 1 -9 13 0 13 -1 0 -10 -9 -6
-11 -10 -3 -10 7 0 10 -7 6 -17 -4 -11 -3 -14 5 -9 7 4 12 2 12 -3 0 -6 -6
-11 -12 -11 -9 0 -8 -3 2 -10 9 -6 17 -5 23 3 5 7 6 4 2 -9 -4 -14 0 -24 10
-28 8 -3 15 -12 15 -21 0 -8 6 -15 13 -15 9 0 9 -2 -1 -9 -11 -7 -11 -9 2 -14
9 -4 15 -10 15 -14 -4 -15 13 -43 22 -37 5 3 9 -6 9 -19 0 -14 8 -31 18 -38
14 -11 15 -11 5 1 -7 8 -13 19 -13 25 1 11 24 -24 26 -40 0 -5 2 -16 2 -23 1
-8 7 -10 15 -6 7 5 7 2 -2 -10 -8 -9 -10 -16 -5 -15 19 3 34 -1 34 -12 0 -5
-4 -8 -8 -5 -5 3 -9 -1 -9 -9 0 -8 4 -12 9 -9 5 3 18 -2 29 -12 15 -14 17 -20
6 -32 -10 -13 -9 -15 5 -9 10 3 17 3 17 -1 -2 -15 14 -52 23 -52 5 0 6 -4 3
-10 -3 -5 3 -17 14 -27 11 -9 18 -20 15 -25 -3 -4 0 -8 6 -8 6 0 9 -4 5 -9 -3
-5 -1 -12 5 -16 6 -4 7 -12 3 -18 -4 -7 1 -6 10 2 15 12 17 12 11 -3 -4 -11 2
-23 19 -37 17 -13 24 -25 20 -36 -5 -12 -3 -14 7 -8 10 6 12 4 7 -8 -4 -11 -1
-17 8 -17 8 0 15 -9 15 -21 0 -11 5 -17 10 -14 6 4 10 3 9 -2 -4 -22 2 -43 11
-38 6 3 10 1 10 -6 0 -7 8 -21 17 -32 10 -11 13 -17 6 -14 -6 4 -15 3 -18 -3
-4 -6 -3 -10 2 -9 20 4 33 -2 33 -15 0 -7 16 -31 35 -52 25 -26 33 -44 29 -57
-3 -11 -2 -17 2 -14 10 6 28 -12 32 -33 2 -8 8 -17 13 -18 5 -2 14 -13 20 -24
9 -16 8 -19 -3 -13 -7 4 -2 -3 12 -16 14 -13 20 -20 13 -15 -10 6 -12 4 -7 -8
3 -9 10 -16 15 -16 4 0 14 -12 22 -27 7 -16 18 -27 25 -26 6 2 9 -3 6 -11 -3
-7 2 -20 10 -29 9 -9 16 -20 16 -26 0 -6 5 -11 11 -11 6 0 9 -7 5 -15 -3 -9 0
-15 10 -15 8 0 13 -4 9 -9 -3 -5 1 -16 10 -24 8 -8 16 -21 17 -28 2 -8 15 -26
31 -41 18 -18 23 -28 15 -31 -10 -4 -10 -6 0 -6 6 -1 12 -8 12 -17 0 -10 5
-14 15 -10 13 5 14 2 4 -15 -8 -16 -8 -20 1 -14 7 4 13 -1 17 -14 3 -11 10
-18 15 -15 6 4 7 -2 3 -16 -4 -13 -3 -20 2 -17 6 4 20 -8 33 -26 17 -23 19
-28 5 -17 -17 14 -17 14 -5 -7 8 -12 17 -20 21 -17 4 2 12 -10 19 -26 7 -17
16 -30 21 -30 5 0 9 -9 9 -20 0 -11 7 -20 16 -20 9 0 12 -5 8 -12 -4 -6 1 -17
11 -25 11 -7 16 -13 12 -13 -4 0 1 -10 13 -22 11 -12 20 -28 20 -35 0 -7 6
-13 13 -13 8 0 7 -4 -3 -10 -13 -9 -13 -10 0 -11 8 -1 18 -1 23 0 4 0 7 -3 7
-9 0 -5 -4 -10 -10 -10 -5 0 -10 -4 -10 -10 0 -5 7 -6 17 -3 11 4 14 3 9 -5
-4 -7 -2 -12 3 -12 6 0 11 -9 11 -21 0 -14 5 -19 14 -16 10 4 12 -1 9 -16 -4
-18 -3 -19 6 -7 9 12 11 11 11 -7 0 -13 5 -23 10 -23 6 0 9 -6 8 -12 -2 -7 3
-12 10 -10 6 1 12 -2 12 -6 0 -4 -6 -14 -12 -21 -10 -11 -10 -13 0 -7 6 4 12
2 12 -4 0 -6 5 -8 12 -4 6 4 8 3 4 -4 -3 -6 1 -18 10 -26 9 -9 13 -24 10 -33
-5 -13 -4 -14 8 -4 13 11 15 9 11 -8 -2 -11 1 -20 7 -18 6 1 14 -9 18 -23 4
-15 13 -24 24 -24 12 2 14 -1 6 -11 -8 -10 -5 -18 13 -32 13 -10 22 -24 19
-31 -4 -14 23 -44 32 -35 3 4 6 -3 6 -15 0 -12 4 -22 10 -22 5 0 6 -8 3 -17
-5 -12 -2 -15 8 -11 10 4 15 -1 16 -14 1 -11 11 -28 23 -38 15 -13 17 -19 8
-23 -11 -4 -10 -6 0 -6 7 -1 10 -6 7 -11 -4 -6 -3 -10 2 -9 20 3 34 -2 28 -11
-3 -6 1 -17 10 -26 9 -9 14 -23 11 -30 -3 -8 1 -14 10 -14 11 0 14 -6 10 -16
-4 -11 1 -18 14 -21 11 -3 18 -9 15 -13 -3 -5 2 -15 10 -23 8 -9 15 -21 15
-27 0 -6 6 -13 14 -16 9 -3 12 -12 9 -22 -5 -11 -2 -14 9 -9 12 4 15 0 11 -16
-4 -18 -3 -19 6 -7 9 12 11 11 11 -7 0 -13 5 -23 10 -23 6 0 9 -6 8 -12 -2 -7
3 -12 10 -10 16 3 16 -10 0 -27 -11 -10 -10 -12 0 -9 8 2 19 -6 25 -17 7 -10
18 -25 25 -33 7 -7 10 -18 7 -23 -4 -5 -2 -9 4 -9 6 0 13 -11 17 -25 3 -14 10
-22 15 -20 5 3 11 -6 15 -20 6 -23 15 -30 37 -26 5 1 6 -3 2 -9 -3 -6 -11 -8
-16 -5 -5 4 -9 1 -9 -4 0 -6 6 -11 13 -11 6 -1 22 -17 34 -36 13 -19 17 -32
10 -28 -8 5 -8 2 2 -9 7 -9 17 -15 21 -12 4 3 11 -2 14 -11 4 -10 2 -13 -7 -8
-9 6 -9 5 0 -8 7 -8 9 -19 5 -23 -4 -5 -1 -5 6 -1 6 4 12 2 12 -4 0 -6 5 -8
12 -4 8 5 7 0 -2 -11 -9 -11 -10 -16 -2 -11 7 4 12 1 12 -9 0 -8 7 -18 16 -22
8 -3 13 -12 10 -20 -3 -8 -1 -11 4 -8 6 3 10 -1 10 -10 0 -9 4 -14 9 -11 4 3
8 -4 7 -16 -1 -14 8 -27 24 -35 14 -7 22 -13 17 -13 -4 0 0 -14 8 -30 10 -19
20 -28 28 -23 9 5 9 4 0 -8 -10 -12 -5 -22 27 -56 24 -26 34 -44 27 -47 -7 -2
-6 -5 4 -5 9 -1 15 -9 15 -21 -1 -10 2 -18 5 -17 12 4 38 -25 33 -38 -3 -7 0
-16 7 -21 8 -5 10 -3 4 6 -5 9 -4 11 4 6 9 -6 9 -11 -1 -24 -11 -13 -11 -15 3
-10 11 4 16 1 15 -11 -1 -21 49 -82 60 -73 5 4 2 -2 -6 -12 -10 -13 -10 -17
-2 -12 8 4 12 1 12 -9 0 -10 6 -15 13 -12 10 4 13 -2 9 -19 -4 -23 5 -30 32
-25 5 1 3 -6 -5 -15 -9 -12 -9 -15 -2 -10 8 4 13 1 13 -9 0 -9 4 -13 10 -10 6
3 7 -1 4 -9 -4 -10 -1 -16 7 -16 11 0 11 -3 -1 -10 -13 -8 -12 -10 3 -10 9 0
17 -5 17 -11 0 -5 6 -7 13 -3 7 5 6 0 -3 -11 -12 -15 -12 -17 -1 -10 11 6 13
4 8 -8 -5 -12 -1 -17 12 -17 10 0 22 -7 25 -16 5 -12 3 -14 -7 -8 -7 5 -1 -2
13 -15 14 -13 18 -20 11 -15 -9 4 -6 -5 7 -23 12 -17 19 -33 16 -36 -3 -3 6
-13 20 -22 17 -11 26 -26 26 -44 0 -20 2 -23 10 -11 8 12 10 11 10 -7 0 -15 6
-23 16 -23 14 0 15 -2 3 -17 -10 -11 -10 -14 -1 -9 8 5 15 -2 22 -19 5 -14 14
-31 20 -38 41 -48 49 -61 44 -68 -3 -5 0 -9 6 -9 6 0 9 -4 6 -9 -3 -5 3 -11
14 -14 13 -3 18 -10 14 -21 -3 -9 -1 -16 5 -16 6 0 10 -3 10 -8 -3 -20 3 -32
17 -32 8 0 12 -4 9 -10 -3 -5 -1 -10 5 -10 6 0 9 -4 6 -9 -3 -4 2 -17 10 -27
9 -10 13 -13 9 -6 -3 6 -4 12 -1 12 3 0 13 -15 21 -33 14 -28 14 -30 0 -13 -8
11 -15 15 -15 10 0 -6 11 -20 26 -33 19 -16 23 -27 18 -44 -6 -19 -5 -20 10
-8 9 7 17 10 17 5 1 -5 2 -16 3 -24 0 -8 7 -14 14 -12 10 2 14 -9 11 -34 0 -3
9 -13 20 -23 14 -12 17 -21 11 -29 -6 -7 -7 -10 -4 -7 4 3 13 -3 21 -13 8 -9
11 -11 7 -3 -4 9 -3 12 4 7 6 -4 9 -13 6 -20 -3 -8 0 -17 7 -22 8 -5 10 -3 4
6 -5 8 -4 11 3 6 6 -4 9 -13 5 -21 -3 -8 0 -15 7 -15 7 0 10 -8 7 -19 -3 -14
-1 -18 9 -14 9 3 14 -2 14 -17 0 -14 4 -19 12 -14 8 5 9 2 5 -9 -4 -11 -1 -17
8 -17 9 0 12 -6 8 -17 -4 -10 -2 -14 5 -9 10 6 26 -9 27 -29 2 -21 17 -45 26
-39 5 3 9 1 9 -5 0 -5 -6 -12 -12 -14 -8 -3 -5 -6 5 -6 10 -1 15 -5 12 -11 -3
-5 -2 -10 3 -10 5 0 15 -13 22 -30 7 -16 17 -27 23 -23 6 4 8 0 4 -10 -4 -11
-1 -17 8 -17 8 0 14 -3 14 -7 -4 -23 2 -43 11 -38 6 4 10 -5 10 -20 0 -20 4
-26 16 -21 8 3 13 2 10 -3 -11 -17 34 -52 62 -48 15 3 26 9 25 15 -1 5 5 9 15
8 9 0 16 4 15 11 -1 6 4 14 13 17 10 4 13 1 9 -7 -4 -6 0 -4 8 5 8 10 18 18
23 18 4 0 19 12 32 28 13 15 20 20 16 12 -4 -8 5 -2 19 13 15 15 32 25 37 22
6 -4 9 -1 8 7 -2 7 3 12 10 10 6 -1 12 5 12 14 0 14 2 15 17 3 12 -10 15 -11
9 -1 -4 7 -2 19 4 28 10 11 16 12 29 2 9 -7 13 -8 9 -4 -10 12 32 47 45 39 5
-3 7 -1 4 4 -4 6 0 16 8 23 8 7 15 10 15 7 0 -3 12 5 26 18 15 14 31 22 37 18
6 -4 8 0 4 11 -4 10 -3 15 3 11 5 -3 18 3 30 15 11 11 24 20 30 20 5 0 15 9
22 19 6 10 17 17 25 14 7 -3 16 2 19 11 3 9 11 13 17 9 7 -4 8 0 4 11 -5 14
-3 17 8 12 8 -3 15 0 15 6 0 6 3 9 6 5 9 -9 33 16 26 28 -3 6 3 3 13 -5 11 -9
16 -10 11 -2 -4 7 -2 12 4 12 6 0 9 4 6 9 -7 11 22 23 36 14 7 -4 8 -1 3 7 -6
10 -4 12 8 7 11 -4 14 -2 10 9 -3 8 -2 14 3 13 21 -4 35 2 29 11 -3 6 -1 10 5
10 6 0 8 4 5 10 -3 6 1 7 9 4 9 -3 16 -1 16 5 0 6 8 11 18 11 10 0 30 14 45
31 16 18 33 29 42 26 10 -4 12 -1 8 10 -5 13 -2 15 12 10 15 -6 16 -5 6 7 -10
12 -8 14 13 12 16 -2 23 1 19 7 -4 6 0 8 10 4 11 -4 14 -2 10 9 -3 7 0 15 6
15 26 3 30 4 38 13 5 6 2 6 -7 1 -13 -8 -13 -6 -1 8 7 9 17 15 21 12 4 -3 13
2 20 10 7 8 16 13 20 10 5 -3 12 0 16 6 4 8 3 9 -4 5 -7 -4 -12 -2 -12 3 0 10
22 16 43 12 5 -1 6 3 2 9 -6 9 41 35 58 32 4 -1 6 4 5 10 -2 7 5 12 15 12 15
-2 16 1 5 14 -11 13 -10 15 4 9 11 -4 17 -2 15 6 -1 7 3 11 9 10 11 -2 13 8
15 62 0 22 3 26 9 15 6 -8 10 -10 10 -4 0 5 -5 15 -12 22 -7 7 -8 12 -2 12 6
0 11 7 11 15 0 8 -4 12 -9 9 -4 -3 -8 -1 -8 4 0 6 7 12 15 16 8 3 12 12 9 21
-3 8 -11 12 -18 8 -7 -4 -7 -2 1 7 8 9 9 19 3 31 -7 12 -6 20 2 25 7 5 8 3 3
-6 -5 -8 -4 -11 2 -7 11 7 11 36 0 54 -5 7 -3 21 2 32 8 14 7 22 -5 32 -14 12
-14 14 2 26 10 7 13 13 7 13 -14 0 -10 44 6 64 12 14 12 16 -1 11 -10 -4 -14
3 -13 27 0 18 4 39 8 45 5 8 3 13 -5 13 -10 0 -10 2 1 9 8 5 11 16 8 24 -3 8
0 20 6 27 8 9 9 11 1 7 -7 -4 -14 2 -17 14 -4 15 -2 17 6 10 9 -7 12 2 11 34
-1 24 -5 49 -10 56 -4 8 -3 10 4 5 7 -4 12 -2 12 3 0 6 -5 11 -10 11 -7 0 -7
6 0 19 13 26 13 54 -1 45 -6 -3 -3 5 6 20 16 23 16 26 1 32 -9 3 -13 10 -10
15 3 5 11 6 17 2 9 -5 9 -3 0 8 -10 12 -10 18 -1 27 9 9 9 12 -1 12 -7 0 -9 5
-4 13 4 6 6 20 4 31 -2 13 1 16 11 10 10 -6 10 -4 -1 9 -7 9 -10 17 -6 17 4 0
1 8 -6 17 -10 11 -10 14 -1 9 7 -4 12 -2 13 6 4 59 -1 101 -12 116 -7 9 -9 14
-4 9 5 -4 14 5 20 20 13 30 9 57 -6 47 -16 -10 -9 8 9 23 9 8 11 12 5 8 -7 -3
-13 0 -13 7 0 8 6 20 13 27 7 8 7 11 1 8 -7 -4 -14 2 -17 13 -3 11 -2 18 3 15
12 -8 20 21 8 33 -13 13 -18 62 -5 62 5 0 3 8 -4 17 -12 15 -12 16 1 8 8 -4
12 -5 8 0 -4 4 -2 15 5 23 9 13 9 14 0 8 -8 -4 -13 -1 -13 9 0 9 -5 13 -11 9
-6 -3 -4 5 5 18 14 21 14 25 1 25 -8 0 -11 -5 -8 -11 4 -6 -1 -5 -10 3 -9 7
-17 19 -17 25 0 6 5 4 11 -4 9 -13 10 -13 6 0 -2 10 -14 14 -36 12 -26 -3 -31
-1 -26 10 5 7 -2 3 -14 -9 -25 -26 -37 -29 -44 -10 -4 9 -6 9 -6 0 -1 -7 -10
-13 -22 -13 -11 0 -17 -4 -14 -10 3 -5 2 -10 -4 -10 -5 0 -12 6 -14 13 -4 7
-6 6 -6 -4 -1 -10 -9 -16 -18 -15 -10 0 -17 -4 -16 -11 2 -7 -3 -10 -11 -7 -8
3 -22 -5 -31 -18 l-17 -23 6 25 7 25 -13 -23 c-11 -18 -16 -20 -26 -10 -11 11
-12 10 -7 -3 4 -10 1 -20 -6 -25 -8 -4 -10 -3 -5 4 4 7 2 12 -3 12 -6 0 -11
-4 -11 -10 0 -5 -10 -15 -22 -21 -20 -10 -22 -10 -13 2 6 8 3 7 -6 -3 -9 -9
-19 -15 -22 -12 -3 3 -10 -3 -16 -14 -7 -14 -19 -19 -36 -18 -13 2 -22 0 -20
-4 3 -4 -3 -14 -12 -21 -12 -10 -14 -10 -9 -1 4 6 2 12 -3 12 -6 0 -11 -4 -11
-10 0 -5 -7 -10 -15 -10 -8 0 -14 -6 -13 -12 2 -8 -5 -12 -16 -10 -12 2 -16
-1 -10 -9 5 -9 2 -10 -10 -6 -9 4 -15 3 -12 -2 3 -5 -4 -11 -16 -14 -12 -4
-19 -9 -15 -13 4 -4 0 -18 -9 -32 -9 -13 -11 -21 -4 -17 7 4 11 1 9 -6 -3 -27
1 -40 11 -34 6 3 10 -3 10 -14 0 -12 4 -21 9 -21 5 0 8 -11 7 -24 -3 -22 26
-61 37 -50 2 3 3 -7 1 -21 -2 -21 1 -25 13 -21 14 6 14 4 2 -11 -9 -11 -10
-14 -1 -9 8 5 12 1 12 -13 0 -11 5 -23 12 -27 7 -5 8 -3 3 6 -5 8 -4 11 2 7 6
-4 9 -18 8 -32 -3 -22 4 -29 26 -27 3 1 6 -5 6 -13 0 -8 -3 -12 -7 -10 -4 2
-7 -2 -7 -10 0 -8 3 -12 7 -10 3 2 12 -5 19 -17 10 -16 10 -19 -1 -13 -7 3 -1
-4 14 -17 21 -18 25 -27 17 -40 -8 -14 -7 -16 5 -12 15 6 34 -35 38 -83 1 -9
5 -10 14 -2 9 8 11 5 7 -10 -3 -13 -1 -21 7 -21 7 0 10 -8 7 -19 -3 -15 2 -21
21 -26 14 -3 21 -9 15 -13 -15 -10 -12 -44 3 -38 8 3 11 0 7 -10 -3 -7 -1 -14
5 -14 5 0 12 -7 15 -14 4 -11 1 -13 -11 -10 -13 4 -14 3 -4 -3 7 -6 14 -19 15
-31 0 -11 5 -19 9 -16 4 3 4 12 1 22 -4 13 -2 13 10 -3 11 -15 13 -25 5 -40
-6 -11 -7 -17 -3 -13 10 9 35 -17 35 -36 0 -9 4 -16 8 -16 5 0 9 -7 9 -15 0
-8 -5 -15 -10 -15 -6 0 -7 -3 -4 -6 4 -4 14 -1 23 7 15 12 16 12 10 -8 -4 -13
-1 -27 9 -37 9 -9 12 -16 6 -16 -6 0 -2 -9 9 -20 12 -12 17 -26 13 -36 -5 -13
-3 -15 7 -9 8 5 11 4 6 -3 -3 -5 -3 -12 1 -15 5 -2 1 -2 -7 0 -8 2 -3 -7 12
-19 21 -17 25 -27 18 -38 -6 -10 -10 -11 -10 -2 0 6 -8 12 -17 13 -15 0 -15 2
2 9 16 7 17 9 3 9 -9 1 -20 10 -23 21 -3 11 -13 20 -21 20 -8 0 -13 3 -13 8 3
19 -2 33 -11 27 -6 -4 -7 1 -3 11 4 12 3 15 -5 10 -8 -5 -12 0 -12 14 0 12 -4
18 -10 15 -6 -3 -10 3 -10 14 0 13 -7 21 -17 21 -9 0 -13 3 -10 7 4 3 0 17 -9
31 -10 15 -11 21 -3 17 8 -6 10 -4 5 4 -5 7 -14 10 -21 7 -9 -3 -11 2 -7 16 3
14 1 19 -6 14 -8 -5 -12 1 -12 14 0 12 -5 18 -10 15 -6 -3 -10 3 -10 14 0 12
-4 21 -10 21 -5 0 -10 7 -10 15 0 7 -8 19 -17 24 -14 8 -15 10 -3 11 9 0 4 6
-10 13 -16 8 -25 21 -24 35 0 12 -5 22 -11 22 -7 0 -15 14 -18 30 -4 18 -13
30 -22 30 -9 0 -13 5 -10 10 3 5 1 10 -5 10 -6 0 -8 4 -5 10 3 5 1 10 -5 10
-6 0 -8 5 -5 10 3 6 -2 10 -12 11 -10 0 -13 3 -7 5 6 3 -3 20 -22 41 -18 20
-31 40 -28 44 2 5 -4 17 -16 29 -11 11 -20 27 -20 35 0 8 -4 15 -8 15 -4 0
-13 14 -19 31 -7 18 -17 28 -23 24 -6 -3 -10 -3 -9 2 4 21 -2 34 -12 27 -8 -4
-8 0 0 15 10 18 9 20 -5 14 -12 -4 -15 -3 -10 5 4 7 1 12 -9 12 -10 0 -13 5
-9 12 4 6 -1 17 -11 25 -14 9 -15 13 -4 13 12 0 12 2 -1 9 -8 6 -17 8 -21 5
-4 -2 -5 6 -2 18 4 19 3 20 -6 8 -9 -12 -11 -10 -11 10 0 14 -10 36 -21 50
-11 14 -17 19 -13 11 4 -9 3 -12 -4 -7 -6 3 -9 15 -7 26 2 13 -4 25 -16 33
-10 6 -19 17 -19 23 0 7 -7 15 -16 18 -9 3 -14 13 -11 20 3 8 -2 20 -11 28
-16 12 -16 11 -2 -7 11 -16 11 -17 0 -8 -18 17 -22 45 -7 56 8 6 6 7 -5 3 -12
-3 -18 0 -18 10 0 9 -5 12 -12 8 -7 -5 -8 -3 -3 6 5 8 1 18 -10 27 -18 13 -18
13 1 14 18 0 18 1 -1 8 -11 5 -24 6 -30 3 -5 -3 -3 3 5 13 12 15 12 17 1 10
-11 -6 -13 -4 -8 9 4 9 3 15 -2 12 -5 -3 -12 1 -15 10 -4 10 -2 13 6 8 7 -5 8
-3 4 5 -5 7 -14 10 -22 7 -9 -3 -11 0 -7 11 4 11 2 14 -5 9 -8 -5 -10 -2 -6 8
3 9 1 16 -4 16 -6 0 -14 9 -17 20 -4 11 -10 18 -14 16 -4 -3 -8 9 -9 25 -1 16
2 29 7 29 5 0 8 -8 6 -17 -1 -10 0 -12 2 -6 3 7 10 13 16 13 7 1 -1 8 -18 17
-16 10 -36 16 -42 15 -7 -2 -14 2 -14 8 -1 5 -2 16 -3 23 -1 6 -10 11 -21 9
-15 -2 -17 -1 -6 6 15 11 5 36 -10 26 -5 -3 -9 -2 -8 3 1 4 0 10 -1 13 -7 20
-7 40 2 40 6 0 8 -7 5 -14 -4 -10 -1 -13 9 -9 8 3 14 -1 14 -8 0 -11 3 -11 10
1 5 8 10 10 10 4 0 -5 -5 -15 -12 -22 -11 -11 -3 -16 23 -14 10 1 6 -33 -5
-41 -7 -5 -3 -7 9 -4 11 2 19 9 17 16 -1 7 2 10 8 6 8 -5 7 -11 -1 -21 -11
-14 -1 -20 26 -14 6 1 7 -2 3 -5 -4 -4 3 -16 15 -27 12 -11 16 -17 10 -13 -8
4 -13 0 -13 -10 0 -13 4 -14 23 -4 l22 12 -19 -22 c-19 -21 -19 -21 -1 -15 13
5 16 4 11 -4 -4 -7 -2 -12 4 -12 6 0 8 -4 5 -10 -3 -5 1 -10 9 -10 9 0 16 -7
16 -15 0 -8 6 -12 13 -9 8 3 14 -2 14 -10 0 -8 -4 -13 -8 -10 -4 2 -11 0 -14
-6 -4 -6 -3 -10 2 -9 20 3 34 -2 28 -11 -3 -5 -1 -10 5 -10 7 0 9 9 6 23 -3
12 -3 16 0 10 3 -7 13 -13 22 -13 13 0 14 -2 3 -9 -10 -7 -11 -13 -1 -30 10
-19 14 -20 28 -9 9 7 21 18 25 23 5 6 5 -1 1 -15 -6 -22 -5 -23 10 -11 9 7 16
10 16 5 0 -4 7 1 16 12 8 10 12 12 8 4 -6 -12 -5 -13 7 -4 8 6 26 14 41 18 17
4 25 11 22 20 -3 9 4 12 25 11 17 -1 28 2 25 7 -3 4 0 8 6 8 6 0 8 4 5 10 -3
5 0 7 8 4 9 -3 22 4 31 18 9 13 19 22 21 21 12 -7 26 -2 20 6 -3 6 4 8 15 6
14 -3 24 4 35 23 8 15 14 20 15 12 0 -10 7 -7 21 10 11 14 18 19 14 13 -4 -9
-1 -11 9 -7 9 3 13 10 10 15 -3 5 2 9 10 9 9 0 16 4 16 9 0 6 9 8 21 6 17 -3
19 -1 9 10 -9 11 -7 12 8 8 12 -3 22 1 25 11 4 9 13 16 22 16 8 0 15 5 15 10
0 6 5 10 11 10 5 0 7 -5 4 -11 -4 -6 2 -5 13 2 12 7 18 17 16 21 -3 4 0 8 6 8
6 0 9 4 6 9 -4 5 3 7 14 4 12 -3 22 1 26 11 3 9 15 16 25 16 10 0 19 5 19 11
0 6 7 9 15 6 8 -4 22 4 32 17 10 12 23 24 28 27 6 2 9 8 7 13 -2 5 4 3 13 -4
13 -11 14 -10 9 4 -5 14 -2 17 14 14 12 -2 30 8 45 24 19 20 27 24 37 15 10
-9 11 -9 6 1 -5 8 3 17 22 25 16 6 30 17 31 22 4 15 11 20 11 7 0 -7 9 -3 20
8 11 11 27 20 36 20 8 0 12 4 9 10 -3 5 1 10 9 10 9 0 26 11 38 25 18 20 24
23 37 12 12 -9 13 -9 7 1 -4 7 -2 12 4 12 6 0 8 5 4 12 -4 6 -3 8 4 4 6 -3 25
7 43 23 19 17 38 27 47 23 9 -3 13 -1 9 5 -4 6 0 14 9 17 8 3 13 2 9 -3 -6
-11 22 -8 32 4 4 4 2 5 -4 1 -7 -4 -13 -2 -13 3 0 6 4 11 9 11 5 0 17 7 25 16
12 12 16 12 16 2 0 -8 4 -7 11 5 5 9 17 17 25 17 8 0 12 5 9 10 -3 6 3 10 14
10 13 0 21 7 21 18 0 14 2 15 10 2 9 -13 14 -8 11 12 0 4 8 5 19 3 13 -3 18 0
14 7 -5 7 -2 9 9 5 11 -4 14 -2 10 9 -4 10 0 12 13 7 13 -5 15 -3 9 7 -6 9 -4
12 7 8 8 -4 20 2 26 13 13 21 37 27 27 7 -3 -7 2 -3 11 9 9 13 22 23 29 23 8
0 15 5 17 11 2 5 12 11 22 13 10 1 24 10 31 19 7 9 15 14 18 10 4 -3 7 1 7 10
0 9 6 17 14 17 8 0 17 6 19 13 4 10 6 10 6 0 1 -8 9 -5 21 7 12 12 26 18 32
14 7 -4 8 -3 4 4 -4 7 -2 12 4 12 6 0 8 6 4 13 -5 9 -4 9 6 1 9 -9 17 -7 31 7
11 11 25 17 31 13 7 -4 8 -3 4 4 -5 8 1 12 14 12 16 0 20 4 16 16 -6 15 -4 15
11 3 9 -8 14 -9 10 -2 -4 7 1 14 13 18 11 4 18 10 15 15 -3 4 3 6 14 3 12 -3
24 3 35 18 9 13 16 19 16 14 0 -6 5 -2 11 7 5 10 16 15 25 11 10 -4 17 2 21
17 4 16 8 18 14 8 7 -10 9 -9 9 5 0 10 4 16 9 12 5 -3 13 0 16 6 4 5 14 8 22
4 14 -5 14 -3 2 12 -9 11 -10 14 -1 9 6 -4 12 -2 12 3 0 13 22 10 33 -4 4 -6
7 -1 5 10 -2 13 2 19 11 17 9 -2 11 3 7 14 -5 14 -4 15 9 4 11 -9 15 -9 15 -1
0 6 12 16 26 21 14 6 22 15 18 21 -5 8 -1 8 14 0 18 -10 20 -9 17 9 -3 17 -1
19 16 10 10 -6 19 -7 18 -3 -4 23 3 31 21 28 11 -2 18 0 15 6 -4 5 0 9 8 9 8
0 26 11 41 25 15 14 32 23 37 20 5 -4 12 1 15 9 3 9 10 13 15 10 8 -5 13 9 10
28 0 4 10 3 24 -2 19 -7 23 -6 19 5 -4 8 7 18 30 26 20 7 36 17 36 21 0 5 12
13 26 18 14 6 22 14 19 20 -3 6 1 7 9 4 9 -4 18 0 22 9 3 10 15 14 32 12 15
-2 21 -2 14 1 -18 8 -4 24 15 17 9 -4 14 -2 11 3 -3 5 0 15 8 22 11 10 14 10
14 0 0 -6 7 -3 15 8 8 10 15 15 15 9 0 -5 7 1 15 15 8 14 14 19 15 11 0 -10 6
-7 19 7 19 23 37 30 25 10 -4 -7 -3 -8 5 -4 6 4 9 12 6 17 -4 5 -1 9 5 9 6 0
8 5 4 13 -6 9 -4 9 8 -1 13 -10 17 -10 22 5 6 15 9 15 17 3 9 -12 10 -11 6 6
-3 17 -1 20 14 17 11 -3 23 3 30 16 11 16 16 18 29 8 8 -6 12 -8 9 -4 -10 11
33 54 49 49 6 -2 12 1 12 7 0 6 6 11 14 11 7 0 21 10 30 22 9 13 14 16 10 8
-5 -10 0 -9 14 4 12 11 22 16 22 12 0 -4 6 -1 14 6 8 7 12 16 9 21 -4 6 12 11
30 8 4 0 7 4 7 10 0 5 5 7 10 4 6 -3 10 -1 10 6 0 7 3 10 6 6 4 -3 14 2 23 11
9 10 14 13 11 7 -3 -6 3 -2 14 10 10 11 21 19 25 19 3 -1 5 2 4 7 -2 4 5 5 14
2 11 -4 14 -3 9 5 -5 8 -1 10 10 5 14 -5 16 -3 11 12 -6 15 -5 16 8 5 14 -11
19 -7 16 12 0 4 11 11 27 14 15 4 35 16 45 28 10 11 16 15 12 9 -4 -9 -1 -11
9 -7 9 3 13 10 10 15 -3 5 0 9 5 9 18 0 26 3 40 17 7 8 20 12 29 8 12 -5 13
-3 2 10 -7 9 -9 15 -4 14 5 -1 12 0 17 1 4 1 13 3 20 4 6 1 11 7 10 13 -3 15
33 27 48 17 8 -4 9 -3 5 4 -4 7 -1 12 10 12 14 0 15 2 3 17 -13 15 -12 15 10
4 15 -8 21 -9 17 -2 -4 6 0 11 9 11 8 0 18 7 21 15 4 8 10 13 14 10 5 -3 19 5
31 17 12 13 19 16 15 8 -4 -8 0 -6 9 5 9 11 20 20 26 20 5 0 14 7 19 15 5 8
10 11 10 5 0 -5 5 -2 10 7 6 10 19 15 32 13 11 -3 18 -2 14 2 -3 4 1 15 10 25
14 15 20 16 32 5 9 -6 13 -7 10 -2 -3 6 4 19 15 30 11 11 17 14 13 7 -11 -19
2 -14 27 9 12 12 16 18 8 14 -9 -5 -12 -4 -7 3 4 6 13 9 21 6 8 -3 25 6 40 22
14 15 25 21 25 15 0 -7 5 -9 10 -6 6 4 8 11 5 16 -4 5 3 9 15 9 11 0 23 7 26
15 4 8 10 12 15 9 5 -3 9 0 9 6 0 6 5 8 12 4 7 -5 9 -2 5 9 -4 11 -2 14 7 11
8 -3 24 5 36 18 13 13 20 18 16 11 -3 -6 -2 -15 4 -18 6 -4 10 -3 9 2 -4 22 2
32 16 27 8 -4 15 -1 15 5 0 6 7 11 15 11 8 0 15 7 15 15 0 8 6 12 13 9 8 -3
19 5 26 18 7 15 10 16 6 4 -5 -16 -3 -17 10 -6 8 7 12 16 9 21 -3 5 2 6 10 3
9 -3 16 -1 16 5 0 6 7 11 16 11 9 0 12 5 8 12 -4 6 -3 8 3 5 13 -8 95 47 86
58 -5 4 -2 5 5 1 8 -5 19 -1 28 10 9 11 12 12 8 4 -7 -13 -5 -13 9 -1 9 7 14
18 10 25 -4 6 2 4 12 -4 11 -9 16 -10 11 -2 -4 8 -1 12 9 12 12 0 15 5 11 16
-5 14 -4 15 9 4 8 -7 15 -9 15 -4 0 5 12 18 27 28 14 11 23 14 19 8 -4 -7 -2
-12 3 -12 6 0 11 9 11 20 0 13 5 18 15 14 8 -4 15 -1 15 6 0 6 5 8 10 5 6 -3
13 1 16 10 4 9 13 14 21 11 8 -3 11 -1 8 4 -3 6 1 10 10 10 9 0 13 4 10 10 -4
6 5 10 21 10 15 0 24 3 21 7 -8 7 34 39 71 54 13 5 20 14 16 20 -4 7 1 7 16
-1 12 -7 20 -8 17 -3 -2 4 5 17 16 28 11 11 17 14 13 8 -4 -7 -3 -13 3 -13 5
0 13 9 16 20 4 11 11 18 16 15 5 -4 12 1 15 10 6 13 8 14 15 3 7 -10 9 -10 9
0 0 6 7 12 15 12 9 0 18 7 21 15 4 8 13 15 21 15 8 0 12 4 9 9 -7 11 22 23 36
15 5 -3 12 3 15 15 3 12 9 21 13 21 13 0 -2 44 -19 58 -13 11 -13 12 -1 7 10
-4 9 -2 -2 8 -10 8 -18 20 -18 26 0 7 -5 9 -12 5 -8 -5 -9 -2 -5 9 6 15 -3 21
-24 19 -4 -1 -5 9 -2 21 4 18 3 19 -6 7 -9 -12 -11 -11 -11 8 0 15 -4 21 -12
16 -8 -5 -9 -2 -5 10 4 10 3 15 -3 11 -6 -3 -10 1 -10 9 0 8 -5 18 -12 22 -7
5 -8 3 -3 -6 5 -9 4 -11 -3 -6 -7 4 -12 16 -12 27 0 10 -4 19 -10 19 -5 0 -10
7 -10 15 0 8 -4 15 -10 15 -5 0 -10 7 -10 15 0 8 -7 15 -16 15 -8 0 -12 5 -9
10 3 6 1 10 -4 10 -6 0 -11 7 -11 15 0 9 -7 18 -15 21 -8 3 -17 14 -20 25 -4
11 -11 17 -16 14 -5 -3 -6 0 -4 8 7 16 -29 60 -40 49 -5 -4 -5 -2 -2 4 8 14
-21 56 -34 49 -5 -3 -6 2 -2 11 4 12 3 15 -5 10 -8 -5 -10 -1 -5 10 5 14 3 16
-11 11 -11 -5 -16 -2 -14 8 2 7 -6 21 -17 30 -11 9 -15 14 -9 11 6 -3 11 1 11
9 0 8 -3 14 -6 13 -21 -2 -30 5 -41 32 -7 16 -16 27 -21 24 -8 -5 -14 18 -10
39 1 5 -3 6 -9 2 -5 -3 -10 1 -10 9 0 9 -7 16 -17 16 -9 0 -14 3 -10 6 3 4 -1
13 -9 21 -8 8 -12 19 -9 24 4 5 -1 9 -9 9 -8 0 -20 9 -26 20 -6 11 -8 20 -4
20 4 0 -4 10 -18 23 -13 12 -22 29 -20 36 3 8 0 11 -7 7 -6 -4 -11 -2 -11 4 0
6 -5 8 -12 4 -8 -5 -8 -1 2 12 8 10 10 16 6 12 -10 -8 -43 31 -38 45 1 5 -2 6
-8 2 -9 -6 -14 8 -11 28 1 5 -3 6 -9 2 -5 -3 -10 1 -10 9 0 9 -7 16 -15 16 -8
0 -14 3 -14 8 4 22 -3 34 -16 28 -8 -3 -14 -2 -14 2 4 22 -2 42 -11 37 -5 -3
-10 3 -10 13 0 11 -8 26 -17 33 -14 12 -16 12 -8 0 5 -9 4 -12 -3 -7 -6 3 -9
16 -7 27 3 15 0 19 -11 15 -8 -3 -12 -2 -9 3 3 6 -3 14 -12 20 -14 8 -15 11
-3 11 8 1 -5 12 -30 25 -34 17 -48 20 -58 12 -10 -8 -16 -7 -23 4 -8 12 -10
12 -20 -1 -7 -11 -12 -12 -15 -3 -3 7 -20 10 -46 7 -30 -4 -38 -2 -33 8 3 7
-1 4 -9 -6 -9 -11 -16 -15 -16 -9 0 6 -15 10 -32 10 -22 -1 -32 4 -30 12 1 7
-2 9 -8 6 -6 -4 -9 -14 -6 -24 5 -12 2 -11 -9 3 -10 13 -15 15 -15 6 0 -9 -6
-8 -22 6 -14 12 -18 13 -10 3 10 -14 8 -16 -17 -15 -16 1 -27 4 -25 8 2 4 0 9
-6 13 -5 3 -10 -2 -10 -11 0 -16 -2 -15 -22 2 -12 10 -18 14 -15 8 11 -19 -30
-23 -54 -6 -12 8 -19 10 -15 4 4 -7 3 -12 -3 -12 -5 0 -12 4 -15 9 -7 10 -25
9 -43 -2 -8 -5 -13 -3 -13 5 0 9 -3 9 -10 -2 -8 -12 -11 -13 -19 -1 -7 11 -9
11 -14 0 -5 -12 -6 -12 -6 0 -1 11 -4 11 -16 1 -12 -10 -15 -10 -15 1 0 11 -2
11 -10 -1 -7 -11 -10 -11 -10 -2 0 8 -5 10 -12 5 -24 -14 -40 -12 -33 5 6 16
5 16 -11 0 -13 -13 -20 -14 -36 -5 -15 10 -21 9 -28 -3 -5 -8 -10 -10 -10 -4
0 12 -17 15 -72 14 -7 -1 -27 1 -45 3 -17 2 -30 -1 -27 -5 3 -4 0 -8 -5 -8 -6
0 -11 3 -11 8 0 4 -42 7 -94 7 -52 -1 -92 3 -90 7 3 4 -5 4 -18 0 -23 -8 -50
-8 -99 -1 -14 2 -34 -3 -43 -10 -14 -12 -17 -12 -14 -1 4 19 -31 19 -62 0 -13
-8 -21 -10 -17 -4 8 13 -49 12 -61 -1 -4 -5 -1 -5 7 0 10 6 12 4 7 -4 -6 -9
-11 -9 -24 1 -12 10 -14 10 -8 1 4 -9 1 -13 -9 -13 -11 0 -15 -5 -12 -14 4
-11 1 -13 -10 -9 -13 5 -15 1 -10 -25 4 -20 2 -32 -4 -32 -6 0 -8 4 -4 9 3 5
1 12 -4 15 -13 8 -7 -22 6 -35 6 -6 9 -18 5 -27 -4 -11 -1 -14 10 -10 12 5 14
0 12 -23 -2 -16 1 -29 6 -29 6 0 10 -11 10 -25 0 -14 5 -25 11 -25 5 0 7 -4 4
-10 -3 -5 0 -10 7 -11 7 0 4 -4 -7 -9 -17 -7 -17 -9 -3 -9 10 -1 22 -11 29
-22 9 -17 8 -20 -3 -13 -10 6 -11 5 -1 -8 7 -8 9 -19 5 -23 -4 -5 1 -5 10 -2
10 3 20 1 24 -5 4 -7 3 -8 -4 -4 -7 4 -12 2 -12 -3 0 -6 5 -11 10 -11 6 0 10
-10 10 -22 0 -17 3 -19 9 -10 6 10 10 4 16 -20 4 -18 7 -36 6 -40 0 -5 4 -7
10 -5 6 1 14 -4 17 -12 3 -9 0 -11 -9 -6 -8 5 -11 4 -6 -1 5 -5 13 -10 18 -10
22 -3 23 -5 9 -15 -12 -9 -11 -10 6 -6 18 4 21 0 20 -33 -1 -25 3 -36 10 -33
7 2 15 -1 20 -8 5 -8 3 -10 -7 -4 -8 4 2 -7 21 -24 35 -31 35 -31 52 -11 11
14 18 16 21 8 4 -10 6 -10 6 0 1 6 8 12 17 12 8 0 12 4 9 10 -3 6 1 7 9 4 9
-4 16 -1 16 6 0 10 3 10 14 1 11 -9 18 -6 36 16 16 21 20 23 16 8 -6 -19 -5
-19 7 -3 8 10 17 15 20 11 4 -3 7 2 7 11 0 14 6 17 24 14 18 -4 23 -1 18 10
-3 10 -1 13 6 8 7 -4 19 0 28 8 8 9 24 16 34 16 10 0 22 5 25 11 4 6 13 8 21
5 8 -3 13 0 11 7 -1 7 6 11 16 11 10 -1 17 5 17 15 0 9 3 12 8 6 4 -5 13 -11
21 -13 11 -2 12 0 3 10 -9 11 -6 14 11 15 12 1 23 7 25 13 2 5 8 8 13 4 5 -3
9 0 9 7 0 8 4 8 15 -1 13 -11 14 -10 9 5 -5 13 -4 16 4 11 7 -4 12 -2 12 5 0
7 8 9 21 6 17 -4 18 -3 8 9 -10 12 -9 13 5 8 9 -4 16 -1 16 6 0 9 4 9 18 -1 9
-7 14 -10 10 -5 -12 15 15 35 34 25 13 -7 16 -6 12 5 -3 8 0 17 7 22 8 4 10 3
5 -4 -4 -7 -3 -12 2 -12 6 0 13 7 16 16 5 14 9 14 23 3 12 -10 14 -10 9 -1
-10 17 4 38 15 21 7 -11 9 -11 9 2 0 9 6 17 13 16 34 -1 47 5 48 21 0 9 3 12
6 5 3 -10 7 -10 18 0 7 7 11 15 8 20 -2 4 1 7 6 7 6 0 11 -5 11 -12 0 -6 9 -1
20 12 12 14 20 18 20 10 0 -9 5 -7 14 5 8 11 19 16 30 12 10 -4 16 -1 16 8 0
8 3 14 8 13 4 0 15 2 26 7 12 5 21 3 27 -6 5 -8 9 -9 9 -3 0 5 -6 16 -12 23
-9 9 -9 12 -1 7 6 -3 14 0 16 6 3 8 6 6 6 -5 1 -10 6 -15 11 -12 6 4 7 11 4
17 -4 6 -2 8 4 4 6 -3 13 2 15 11 4 15 5 15 6 -2 1 -17 3 -18 12 -5 9 13 10
13 6 0 -2 -8 -8 -15 -13 -15 -16 0 -53 -38 -47 -48 4 -6 1 -7 -6 -3 -7 5 -21
0 -31 -9 -10 -9 -24 -14 -30 -10 -6 3 -9 1 -8 -7 2 -7 -3 -12 -9 -11 -7 2 -13
-2 -13 -8 0 -6 -7 -9 -15 -6 -8 4 -17 1 -21 -5 -5 -7 -2 -8 7 -3 12 7 12 6 1
-7 -8 -9 -20 -14 -28 -11 -10 4 -12 0 -7 -13 4 -11 3 -15 -5 -10 -6 3 -13 2
-17 -4 -3 -5 -18 -10 -33 -10 -21 0 -24 -2 -12 -10 10 -6 11 -10 3 -10 -7 0
-16 1 -19 3 -3 1 -10 -6 -15 -16 -6 -9 -14 -15 -20 -12 -5 4 -9 1 -9 -5 0 -6
-5 -8 -10 -5 -6 3 -13 -1 -16 -9 -3 -9 -13 -16 -21 -16 -8 0 -11 -4 -8 -10 3
-6 -1 -7 -9 -4 -9 4 -18 -1 -22 -10 -3 -9 -10 -13 -15 -10 -5 3 -9 0 -9 -5 0
-6 -5 -11 -11 -11 -6 0 -17 -7 -26 -15 -8 -8 -19 -13 -24 -10 -5 4 -9 -1 -9
-10 0 -9 -5 -13 -10 -10 -6 3 -13 -1 -16 -10 -6 -13 -8 -14 -15 -3 -5 8 -9 9
-9 2 0 -7 -12 -19 -26 -29 -18 -12 -24 -13 -20 -4 4 8 -1 4 -10 -8 -9 -13 -23
-23 -30 -23 -8 0 -14 -6 -14 -12 0 -9 -4 -8 -10 2 -8 13 -10 12 -10 -2 0 -10
-5 -18 -11 -18 -5 0 -7 -6 -3 -12 5 -10 4 -10 -6 -1 -11 10 -17 8 -32 -9 -10
-12 -18 -18 -18 -13 0 4 -9 -3 -21 -16 -11 -13 -18 -19 -15 -13 3 6 -1 11 -9
11 -8 0 -13 -3 -11 -6 6 -9 -21 -31 -28 -24 -3 4 -6 1 -6 -6 0 -7 -4 -10 -9
-7 -11 7 -33 -19 -24 -28 4 -4 0 -4 -10 0 -11 4 -17 1 -17 -7 0 -7 -3 -10 -6
-6 -9 9 -33 -16 -26 -28 3 -5 -2 -4 -11 4 -15 12 -17 11 -17 -3 0 -9 -6 -15
-12 -13 -7 1 -12 -3 -11 -9 1 -7 -5 -11 -15 -10 -9 0 -16 -4 -15 -10 1 -7 -5
-11 -15 -10 -9 0 -16 -4 -15 -11 2 -7 -3 -10 -11 -7 -8 3 -19 -3 -25 -14 -8
-14 -17 -19 -32 -15 -14 4 -20 2 -16 -4 8 -12 -20 -26 -34 -17 -5 3 -8 0 -7
-8 2 -7 -3 -12 -9 -11 -7 2 -13 -2 -13 -7 0 -6 -7 -10 -15 -10 -8 0 -15 -4
-15 -9 0 -5 -9 -7 -20 -4 -18 5 -25 -4 -21 -29 0 -3 -11 -5 -25 -3 -19 2 -24
-1 -19 -13 5 -13 3 -13 -13 1 -10 9 -21 14 -25 11 -3 -3 -4 1 -3 10 1 8 6 19
11 23 4 4 5 2 1 -4 -4 -7 -2 -13 3 -13 6 0 12 7 12 15 3 28 4 33 11 40 8 8 4
-38 -5 -52 -4 -6 3 -10 15 -9 12 0 23 8 25 16 4 13 3 13 -6 0 -5 -8 -13 -11
-17 -7 -4 3 -1 13 6 22 7 8 8 15 3 15 -5 0 -10 12 -11 27 -1 15 -8 30 -15 35
-9 6 -9 8 1 8 10 0 10 3 0 14 -7 8 -17 11 -23 8 -5 -3 -3 3 5 13 9 11 10 16 3
11 -8 -4 -13 -2 -13 6 0 8 -9 20 -19 28 -11 7 -18 17 -15 21 2 4 -3 14 -12 23
-8 9 -12 21 -9 27 4 6 -2 13 -13 16 -14 3 -19 10 -15 21 5 11 2 14 -10 9 -15
-6 -16 -4 -6 14 8 16 8 20 -1 14 -7 -4 -13 1 -17 14 -3 11 -9 18 -14 15 -5 -3
-9 4 -9 15 0 12 -4 21 -10 21 -5 0 -10 5 -10 11 0 5 5 7 12 3 7 -4 8 -3 4 5
-6 9 -11 9 -21 1 -9 -8 -12 -4 -10 15 2 16 -2 25 -11 25 -8 0 -14 6 -14 13 0
8 -9 22 -20 32 -14 13 -17 21 -9 26 8 4 4 9 -10 14 -17 5 -20 10 -11 20 8 10
6 15 -9 20 -12 3 -21 13 -21 21 0 8 -4 14 -10 14 -5 0 -10 7 -10 16 0 9 -5 12
-12 8 -8 -5 -7 0 2 11 8 10 10 16 4 12 -14 -8 -27 20 -17 35 3 6 2 8 -3 5 -6
-3 -16 -2 -24 4 -13 7 -13 9 0 9 9 1 2 12 -20 32 -19 17 -29 28 -22 24 6 -4
12 -3 12 2 0 6 -7 12 -15 16 -8 3 -14 9 -13 13 4 14 -39 73 -47 65 -4 -4 -5 1
-2 11 5 12 1 17 -11 17 -13 0 -14 2 -4 9 11 6 10 10 -4 15 -9 3 -14 9 -10 13
3 3 -3 12 -14 20 -21 15 -29 50 -8 37 7 -4 8 -3 4 4 -4 6 -13 9 -20 6 -8 -3
-17 0 -22 7 -5 8 -3 10 6 4 15 -10 6 9 -19 39 -9 10 -15 20 -13 22 7 12 -1 26
-23 36 -13 6 -22 14 -20 19 3 4 -1 13 -8 21 -8 7 -13 21 -11 31 2 15 0 16 -12
6 -12 -9 -14 -6 -14 21 0 27 -2 31 -14 20 -13 -10 -14 -7 -10 15 3 15 1 24 -4
21 -12 -7 -43 55 -35 68 3 5 1 6 -4 3 -14 -9 -34 15 -36 42 0 11 -6 19 -12 18
-5 -1 -9 4 -8 11 2 6 -2 12 -7 12 -6 0 -10 7 -10 16 0 9 -5 12 -12 8 -8 -5 -7
0 2 11 10 13 11 16 2 11 -9 -5 -15 -1 -19 13 -3 12 -12 21 -19 21 -8 0 -14 10
-14 26 0 14 -4 23 -10 19 -5 -3 -10 1 -10 10 0 20 -25 47 -34 37 -4 -3 -4 1
-1 10 3 8 -1 23 -10 32 -9 9 -13 16 -8 16 4 0 -3 7 -16 16 -15 11 -21 23 -18
35 3 11 1 16 -4 13 -5 -3 -16 11 -25 31 -8 20 -22 39 -30 42 -12 4 -13 8 -4
13 9 5 6 10 -9 15 -12 3 -19 11 -16 16 4 5 1 9 -5 9 -6 0 -8 5 -5 10 3 6 0 10
-7 10 -9 0 -9 3 2 10 13 8 12 10 -2 10 -17 0 -23 12 -19 34 1 5 -4 6 -12 3 -8
-3 -14 3 -15 16 0 12 -6 23 -12 25 -5 2 -10 10 -10 18 0 8 -4 14 -10 14 -5 0
-10 10 -10 22 0 12 -3 18 -6 15 -10 -9 -46 41 -39 53 3 6 -1 13 -9 16 -9 3
-13 10 -10 15 3 5 0 9 -6 9 -6 0 -8 5 -5 10 3 6 -2 10 -12 10 -15 0 -16 2 -3
10 13 8 12 10 -3 10 -10 0 -15 5 -12 10 3 6 1 10 -4 10 -6 0 -11 9 -11 20 0
11 -7 20 -16 20 -8 0 -12 5 -9 10 3 6 1 10 -4 10 -6 0 -11 5 -11 11 0 6 -11
25 -25 41 -14 16 -23 34 -19 39 3 5 0 9 -6 9 -6 0 -8 5 -5 10 3 6 -1 10 -9 10
-9 0 -16 9 -16 20 0 11 -4 20 -10 20 -5 0 -9 4 -7 9 1 5 -7 17 -18 26 -11 9
-14 14 -7 10 17 -9 15 -2 -7 23 -10 12 -21 19 -25 15 -3 -3 -6 -1 -6 5 0 7 5
12 10 12 6 0 -4 14 -22 32 -18 18 -33 38 -33 45 0 8 -7 18 -15 23 -13 9 -13
10 0 10 13 0 13 2 0 9 -8 6 -17 8 -21 5 -4 -2 -5 5 -2 16 4 15 0 20 -13 20
-16 0 -17 2 -4 10 13 8 12 10 -4 10 -11 0 -16 3 -13 7 4 3 -1 12 -11 20 -9 8
-11 11 -3 7 10 -5 12 -3 5 7 -5 8 -9 18 -9 23 0 5 -9 12 -20 17 -11 4 -15 8
-10 8 7 1 7 4 0 9 -19 13 -51 57 -35 47 9 -6 8 -3 -2 7 -10 9 -18 24 -18 33 0
9 -4 13 -10 10 -5 -3 -10 3 -10 15 0 12 -4 19 -9 16 -8 -5 -31 35 -31 56 0 6
-12 22 -27 36 -16 13 -22 21 -16 18 9 -5 11 -2 7 8 -3 9 -10 13 -15 10 -5 -3
-9 2 -9 10 0 9 -5 16 -12 16 -6 0 -8 3 -5 7 4 3 -1 12 -11 20 -9 8 -11 12 -4
8 6 -3 12 -2 12 4 0 5 -9 13 -20 16 -11 3 -20 13 -20 22 0 8 -8 22 -18 31 -10
10 -11 13 -2 7 11 -7 11 -5 -3 11 -9 11 -14 25 -10 29 5 5 -1 3 -11 -5 -18
-14 -19 -14 -8 7 11 20 10 21 -9 18 -17 -4 -19 -2 -9 10 9 11 9 15 1 15 -6 0
-11 9 -11 19 0 11 -13 31 -30 44 -19 16 -25 27 -17 30 7 3 4 6 -6 6 -10 1 -15
6 -12 11 3 6 1 10 -5 10 -6 0 -8 5 -5 10 3 6 1 10 -5 10 -7 0 -9 7 -6 16 3 8
2 13 -2 11 -4 -3 -12 1 -19 8 -10 11 -10 15 0 18 7 3 5 6 -5 6 -9 1 -20 6 -24
13 -5 7 -3 8 5 3 7 -4 5 4 -4 19 -10 14 -22 26 -27 26 -5 0 -6 5 -3 10 3 6 1
10 -4 10 -6 0 -11 9 -11 21 0 11 -4 17 -10 14 -5 -3 -10 1 -10 9 0 9 -4 16 -9
16 -6 0 -8 9 -6 21 4 18 2 19 -11 8 -8 -7 -14 -8 -13 -3 4 22 -2 35 -13 28 -7
-5 -8 -3 -3 6 5 8 1 18 -10 27 -14 10 -15 13 -4 14 8 0 4 4 -9 10 -13 5 -21
13 -17 18 3 6 -5 19 -17 31 -13 12 -24 25 -24 31 -1 5 -2 16 -3 25 0 8 -5 13
-10 9 -5 -3 -11 5 -13 17 -2 13 -9 22 -16 20 -9 -2 -11 4 -7 17 4 13 -1 24
-15 34 -11 7 -17 17 -13 20 3 4 -2 7 -13 8 -10 0 -13 3 -7 6 10 3 9 8 -2 20
-8 8 -13 18 -10 23 3 5 0 12 -6 16 -7 4 -9 3 -6 -3 3 -5 0 -10 -7 -10 -8 0
-12 6 -9 12 2 7 -3 19 -11 27 -11 12 -12 18 -3 27 9 9 8 11 -7 5 -13 -5 -17
-4 -12 4 4 7 2 12 -4 12 -6 0 -8 5 -5 10 3 6 -1 10 -9 10 -9 0 -16 9 -16 20 0
11 -4 20 -10 20 -5 0 -10 9 -10 20 0 11 -5 20 -11 20 -6 0 -9 7 -6 14 4 11 1
13 -10 9 -11 -4 -14 -2 -9 5 4 7 3 12 -3 12 -6 0 -8 8 -4 18 3 9 3 14 -2 10
-8 -8 -23 6 -43 41 -11 19 -11 22 0 16 7 -4 2 3 -12 16 -14 13 -20 20 -13 15
10 -6 12 -4 7 8 -3 9 -12 16 -20 16 -8 0 -13 3 -13 8 3 17 -2 35 -8 29 -7 -8
-33 39 -33 60 0 8 -4 12 -8 9 -4 -2 -14 4 -21 16 -10 16 -10 19 1 12 7 -4 0 5
-15 19 -15 15 -25 32 -22 37 3 6 1 10 -5 10 -6 0 -8 5 -5 10 3 6 -1 10 -9 10
-8 0 -18 5 -22 12 -5 7 -2 9 7 4 8 -5 8 -2 -2 6 -9 7 -14 19 -12 26 3 6 -3 12
-14 12 -15 0 -16 2 -3 10 11 7 11 10 2 10 -7 0 -10 5 -6 12 4 7 3 8 -4 4 -7
-4 -19 10 -31 36 -11 24 -21 39 -21 33 0 -5 -5 -2 -11 8 -5 9 -7 22 -3 29 4 7
3 8 -4 4 -8 -5 -12 1 -12 16 0 18 -2 20 -10 8 -8 -12 -10 -11 -10 8 0 12 -3
22 -7 22 -5 0 -17 12 -27 27 -11 14 -14 23 -8 19 7 -4 12 -2 12 3 0 6 -7 11
-16 11 -8 0 -12 5 -9 10 3 6 1 10 -5 10 -7 0 -9 7 -6 16 3 8 2 12 -4 9 -9 -6
-11 -1 -14 35 -1 8 -9 14 -19 12 -11 -2 -17 4 -17 18 0 11 -4 20 -10 20 -5 0
-10 7 -10 15 0 8 -4 15 -10 15 -5 0 -10 9 -10 19 0 11 -5 23 -12 27 -7 4 -8 3
-4 -4 4 -7 5 -12 2 -12 -3 0 -10 10 -17 21 -9 17 -8 20 3 14 7 -3 5 0 -6 9
-10 8 -15 20 -10 27 4 8 3 10 -4 5 -8 -5 -12 0 -12 13 0 12 -7 21 -16 21 -8 0
-13 4 -10 9 3 5 -1 14 -9 21 -8 7 -13 16 -10 20 3 5 -4 15 -15 23 -11 7 -17
17 -13 20 3 4 1 7 -6 7 -7 0 -9 5 -6 10 4 6 -5 10 -20 10 -15 0 -24 4 -20 10
3 6 4 10 1 10 -3 0 -7 -3 -7 -7z m-1169 -1103 c0 -5 -2 -10 -4 -10 -3 0 -8 5
-11 10 -3 6 -1 10 4 10 6 0 11 -4 11 -10z m2489 -944 c-3 -3 -11 5 -18 17 -13
21 -12 21 5 5 10 -10 16 -20 13 -22z m-2549 -416 c0 -5 -2 -10 -4 -10 -3 0 -8
5 -11 10 -3 6 -1 10 4 10 6 0 11 -4 11 -10z m1127 -406 c-3 -3 -12 -4 -19 -1
-8 3 -5 6 6 6 11 1 17 -2 13 -5z m-1960 -589 c0 -8 -4 -12 -9 -9 -5 3 -6 10
-3 15 9 13 12 11 12 -6z m2323 -189 c0 -2 -8 -10 -17 -17 -16 -13 -17 -12 -4
4 13 16 21 21 21 13z m245 -64 c-3 -3 -11 0 -18 7 -9 10 -8 11 6 5 10 -3 15
-9 12 -12z m2208 -536 c4 -10 1 -13 -9 -9 -7 3 -14 9 -14 14 0 14 17 10 23 -5z
m-3766 -438 c-3 -8 -6 -5 -6 6 -1 11 2 17 5 13 3 -3 4 -12 1 -19z m4628 -337
c3 -5 2 -12 -3 -15 -5 -3 -9 1 -9 9 0 17 3 19 12 6z m-5332 -112 c-8 -8 -13
-7 -18 2 -5 8 -4 10 3 5 7 -4 12 -2 12 5 0 7 3 9 7 6 4 -4 2 -12 -4 -18z
m5048 -224 c5 4 9 1 9 -4 0 -6 -7 -11 -15 -11 -8 0 -14 -3 -14 -7 4 -22 -3
-24 -21 -8 -22 20 -28 8 -7 -14 6 -8 8 -11 2 -9 -10 6 -37 -17 -29 -24 2 -3
-9 -4 -26 -3 -22 1 -31 -4 -36 -18 -5 -16 -8 -17 -15 -6 -9 14 -10 12 -13 -13
0 -7 -7 -13 -14 -13 -7 0 -16 -5 -20 -12 -5 -9 -12 -6 -21 10 -13 21 -13 21 4
7 17 -14 18 -13 12 2 -4 13 -2 15 10 11 12 -5 15 -2 10 10 -4 12 -2 14 10 10
10 -4 14 -2 10 4 -3 5 -1 10 6 11 10 1 22 3 70 11 5 0 6 5 3 9 -7 12 23 54 34
47 5 -3 12 5 15 16 7 20 8 20 17 5 5 -9 13 -14 19 -11z m-101 -40 c0 -8 -4
-15 -10 -15 -5 0 -7 7 -4 15 4 8 8 15 10 15 2 0 4 -7 4 -15z m-126 -117 c-3
-5 -8 -6 -12 -4 -8 5 -33 -20 -26 -26 2 -3 -3 -5 -11 -5 -13 0 -13 2 0 17 8 9
13 19 10 21 -2 3 6 5 20 5 13 0 21 -4 19 -8z m-1384 -42 c0 -3 -4 -8 -10 -11
-5 -3 -10 -1 -10 4 0 6 5 11 10 11 6 0 10 -2 10 -4z m1303 -11 c-3 -9 -8 -14
-10 -11 -3 3 -2 9 2 15 9 16 15 13 8 -4z m-93 -35 c0 -5 -5 -10 -11 -10 -5 0
-7 5 -4 10 3 6 8 10 11 10 2 0 4 -4 4 -10z m-22 -45 c-3 -3 -9 2 -12 12 -6 14
-5 15 5 6 7 -7 10 -15 7 -18z m-381 -220 c0 -8 -4 -12 -9 -9 -5 3 -6 10 -3 15
9 13 12 11 12 -6z m-22 -15 c3 -5 1 -10 -4 -10 -6 0 -11 5 -11 10 0 6 2 10 4
10 3 0 8 -4 11 -10z m-5585 -480 c0 -5 -2 -10 -4 -10 -3 0 -8 5 -11 10 -3 6
-1 10 4 10 6 0 11 -4 11 -10z m6590 -794 c0 -2 -7 -7 -16 -10 -8 -3 -12 -2 -9
4 6 10 25 14 25 6z m-1015 -646 c-3 -5 -12 -10 -18 -10 -7 0 -6 4 3 10 19 12
23 12 15 0z m-325 -206 c0 -8 -19 -13 -24 -6 -3 5 1 9 9 9 8 0 15 -2 15 -3z
m-1982 -559 c-3 -3 -9 2 -12 12 -6 14 -5 15 5 6 7 -7 10 -15 7 -18z m37 -23
c-3 -3 -11 0 -18 7 -9 10 -8 11 6 5 10 -3 15 -9 12 -12z m1016 -5 c-10 -9 -11
-8 -5 6 3 10 9 15 12 12 3 -3 0 -11 -7 -18z m-991 -11 c0 -2 -7 -7 -16 -10 -8
-3 -12 -2 -9 4 6 10 25 14 25 6z m75 -165 c3 -5 1 -12 -5 -16 -5 -3 -10 1 -10
9 0 18 6 21 15 7z m208 -198 c-3 -7 -6 -13 -8 -13 -2 0 -5 6 -8 13 -3 8 1 14
8 14 7 0 11 -6 8 -14z m-1463 -833 c0 -5 -2 -10 -4 -10 -3 0 -8 5 -11 10 -3 6
-1 10 4 10 6 0 11 -4 11 -10z m1881 -973 c-10 -9 -11 -8 -5 6 3 10 9 15 12 12
3 -3 0 -11 -7 -18z"/>
<path d="M8997 6135 c-4 -8 -3 -16 1 -19 4 -3 9 4 9 15 2 23 -3 25 -10 4z"/>
<path d="M4653 10265 c0 -8 4 -12 9 -9 5 3 6 10 3 15 -9 13 -12 11 -12 -6z"/>
<path d="M6746 9948 c3 -5 10 -6 15 -3 13 9 11 12 -6 12 -8 0 -12 -4 -9 -9z"/>
<path d="M6785 9900 c-3 -5 -1 -10 4 -10 6 0 11 5 11 10 0 6 -2 10 -4 10 -3 0
-8 -4 -11 -10z"/>
<path d="M5797 8329 c7 -7 15 -10 18 -7 3 3 -2 9 -12 12 -14 6 -15 5 -6 -5z"/>
<path d="M5906 8067 c3 -10 9 -15 12 -12 3 3 0 11 -7 18 -10 9 -11 8 -5 -6z"/>
<path d="M3600 8020 c-9 -6 -10 -10 -3 -10 6 0 15 5 18 10 8 12 4 12 -15 0z"/>
<path d="M8070 7861 c0 -6 4 -13 10 -16 6 -3 7 1 4 9 -7 18 -14 21 -14 7z"/>
<path d="M5482 6619 c2 -7 -2 -13 -9 -14 -6 0 -15 -3 -19 -7 -4 -5 -12 -8 -18
-8 -6 0 -4 5 4 10 12 8 9 9 -12 8 -15 -1 -24 -6 -22 -10 3 -4 -6 -8 -20 -8
-14 0 -28 -5 -31 -10 -4 -6 -14 -9 -23 -8 -10 2 -16 -3 -14 -10 1 -8 -2 -11
-7 -8 -13 8 -43 -23 -35 -36 4 -7 2 -8 -5 -4 -6 4 -8 13 -5 19 4 7 -2 3 -13
-8 -11 -11 -19 -23 -17 -26 2 -4 -3 -9 -11 -13 -8 -3 -15 -12 -15 -20 0 -8 -5
-16 -11 -18 -7 -2 -12 -18 -13 -35 0 -17 -5 -28 -10 -25 -5 3 -6 -2 -3 -12 4
-9 3 -14 -2 -11 -5 3 -12 1 -16 -5 -3 -5 -1 -10 6 -10 8 0 7 -5 -2 -17 -12
-14 -12 -15 0 -9 10 7 12 3 6 -14 -5 -17 -4 -21 6 -16 8 4 5 0 -5 -8 -13 -10
-15 -16 -7 -16 10 0 11 -3 2 -14 -9 -10 -9 -16 -1 -21 8 -5 6 -14 -7 -28 -16
-19 -16 -20 0 -8 10 8 17 9 17 3 0 -6 -5 -14 -10 -17 -6 -4 -7 -12 -3 -18 11
-18 10 -61 -2 -69 -6 -5 -5 -8 4 -8 11 0 11 -3 0 -17 -10 -11 -10 -14 -1 -9 8
4 12 1 12 -9 0 -12 -5 -15 -17 -11 -16 5 -16 5 0 -8 22 -17 23 -26 5 -37 -10
-7 -10 -9 0 -9 7 0 10 -4 7 -10 -11 -18 -14 -51 -4 -45 5 4 6 11 3 17 -4 6 -3
8 3 5 5 -3 8 -24 6 -46 -2 -26 1 -41 8 -41 6 0 9 -9 6 -20 -3 -13 0 -20 10
-20 10 0 13 -6 9 -16 -3 -8 -2 -13 3 -10 5 3 14 -8 21 -24 7 -16 15 -29 19
-28 20 2 30 -4 25 -16 -4 -11 0 -13 15 -9 15 4 21 1 21 -12 0 -11 5 -15 15
-11 8 3 15 1 15 -4 0 -6 7 -10 16 -10 9 0 12 -5 8 -12 -4 -7 -3 -8 5 -4 6 4
18 2 26 -4 12 -10 15 -9 15 6 1 18 1 18 11 2 5 -10 15 -18 20 -18 6 0 7 5 3
11 -4 8 0 8 15 0 16 -9 21 -9 21 1 0 6 7 3 16 -8 8 -10 13 -14 10 -8 -3 7 9
11 34 11 26 0 37 -4 33 -11 -4 -6 2 -3 13 6 13 11 24 14 33 8 8 -4 25 -4 38 1
18 7 25 5 30 -7 4 -12 8 -13 14 -3 6 10 11 10 23 -1 14 -11 16 -10 10 6 -6 15
-4 17 6 7 8 -8 20 -9 37 -2 14 5 22 5 19 0 -3 -5 1 -11 9 -14 10 -4 12 -1 8
10 -5 12 -3 14 8 7 8 -4 22 -7 33 -5 13 2 16 -1 10 -11 -6 -10 -3 -9 10 1 15
13 19 13 27 0 7 -11 9 -10 9 6 0 17 2 17 10 5 9 -13 10 -13 10 0 1 11 4 10 15
-4 8 -11 15 -14 15 -8 0 7 7 12 15 12 9 0 12 -6 8 -15 -3 -9 -2 -15 3 -14 21
4 28 -2 14 -12 -12 -8 -12 -12 -2 -16 10 -4 10 -8 0 -21 -11 -13 -11 -15 2 -7
12 6 13 5 3 -6 -7 -7 -13 -17 -13 -22 0 -4 6 -5 13 -1 7 5 7 1 -2 -10 -8 -10
-23 -15 -33 -13 -11 3 -15 1 -12 -5 4 -6 -2 -8 -16 -3 -13 4 -20 3 -17 -2 4
-5 0 -10 -8 -10 -8 0 -12 4 -9 9 3 4 1 8 -5 8 -5 0 -13 -5 -16 -11 -5 -7 -14
-4 -28 8 -11 10 -17 13 -14 7 9 -15 -20 -27 -29 -12 -5 7 -2 8 6 3 9 -6 11 -4
6 4 -6 9 -13 8 -29 -6 -11 -10 -17 -13 -14 -7 11 19 -19 24 -44 7 -14 -11 -19
-12 -14 -3 5 8 3 11 -6 8 -8 -3 -22 -1 -33 4 -12 7 -16 7 -12 0 3 -6 2 -13 -4
-17 -5 -3 -10 -1 -10 4 0 6 -7 11 -16 11 -8 0 -12 -4 -9 -10 4 -7 -3 -7 -19 0
-14 5 -26 7 -26 4 0 -4 -8 0 -17 7 -9 8 -14 9 -10 3 4 -7 0 -15 -9 -18 -11 -4
-15 -2 -11 8 4 10 1 13 -9 9 -7 -3 -14 -10 -14 -16 0 -6 -7 -2 -16 9 -8 10
-13 14 -10 8 3 -7 -1 -15 -10 -18 -8 -3 -13 -2 -10 3 3 5 -3 11 -14 14 -11 3
-19 2 -18 -2 2 -20 -4 -22 -18 -5 -8 10 -13 13 -9 7 4 -8 0 -13 -10 -13 -10 0
-14 5 -10 13 4 6 -1 3 -9 -7 -16 -20 -16 -20 -16 0 0 11 -3 15 -8 8 -4 -6 -18
-10 -32 -10 -14 0 -31 -3 -37 -7 -6 -4 -15 -2 -19 4 -5 8 -3 9 6 4 9 -6 11 -4
5 5 -6 10 -11 9 -22 -5 -8 -12 -13 -14 -13 -6 0 11 -3 11 -17 0 -15 -12 -16
-12 -8 1 4 8 -1 6 -12 -5 -14 -13 -16 -22 -9 -27 8 -5 7 -8 -2 -8 -10 0 -10
-5 -1 -22 12 -22 11 -22 -6 -8 -15 12 -17 12 -10 1 13 -22 14 -61 2 -61 -7 0
-3 -7 7 -15 12 -9 15 -15 7 -15 -8 0 -11 -7 -8 -19 2 -10 1 -25 -4 -32 -5 -8
-2 -20 7 -30 13 -14 13 -20 2 -38 -11 -18 -11 -23 2 -31 9 -6 10 -10 3 -10
-15 0 -13 -41 4 -58 7 -7 28 -13 48 -14 20 -1 38 -5 41 -10 3 -4 9 -6 13 -4
18 11 72 16 66 6 -4 -7 2 -7 18 -1 17 7 29 6 37 -2 10 -9 11 -9 6 1 -5 8 0 12
14 12 14 0 19 -4 14 -12 -5 -9 -2 -9 9 1 9 7 17 10 17 6 0 -4 7 -2 15 5 13 11
14 10 10 -1 -4 -10 1 -15 15 -15 14 0 19 5 15 16 -5 11 -3 12 6 3 6 -6 18 -9
27 -6 11 5 13 2 7 -6 -6 -11 -3 -11 16 -1 17 10 24 10 27 1 2 -6 8 -11 13 -11
6 0 7 5 4 10 -3 6 1 10 9 10 9 0 16 -6 16 -12 0 -10 3 -9 9 1 7 11 9 11 14 0
4 -10 6 -10 6 -1 1 6 9 12 19 12 14 0 15 -2 2 -10 -12 -7 -10 -9 7 -7 12 0 19
5 17 9 -7 11 4 10 28 -3 17 -9 20 -9 16 2 -4 9 2 14 17 14 13 0 23 -2 23 -5
-1 -18 4 -21 17 -10 8 7 15 8 15 3 0 -5 10 -9 23 -7 12 1 26 3 30 3 5 1 5 5 2
11 -3 6 1 7 9 4 9 -3 14 -9 11 -13 -2 -4 2 -8 10 -8 8 0 12 4 9 9 -3 4 0 8 5
8 6 0 11 -5 11 -11 0 -8 4 -8 14 0 10 8 16 9 21 1 3 -5 12 -10 18 -10 7 0 6 4
-3 10 -12 8 -9 10 13 10 16 0 26 -4 23 -9 -7 -10 20 -9 30 2 4 4 13 2 20 -4 8
-7 14 -6 20 2 5 8 3 9 -6 4 -9 -5 -11 -4 -6 4 6 9 11 9 22 0 10 -8 14 -8 14
-1 0 6 7 9 15 6 9 -4 15 0 15 7 0 11 3 11 10 -1 8 -12 10 -12 10 -1 0 8 3 12
6 8 9 -9 33 16 26 28 -3 6 2 4 11 -4 17 -13 22 -7 18 21 0 4 6 5 14 2 8 -4 17
1 21 10 3 9 13 16 21 16 8 0 12 4 9 9 -3 4 2 17 10 27 9 10 13 13 9 7 -11 -22
4 -14 16 8 9 17 8 20 -3 14 -7 -3 -5 0 4 8 10 8 15 17 11 20 -3 4 -1 13 5 20
7 8 9 17 5 20 -3 4 0 7 8 7 11 0 11 2 -1 10 -9 6 -10 10 -3 10 8 0 9 9 3 30
-5 17 -5 28 0 25 5 -3 11 -1 15 5 3 5 0 10 -7 10 -9 0 -9 3 2 10 13 9 13 10 0
10 -13 0 -13 1 0 10 10 6 11 10 3 10 -7 0 -13 7 -13 16 0 9 5 12 13 8 9 -6 9
-5 0 7 -16 20 -17 31 -1 40 10 7 10 9 -2 9 -13 0 -13 1 0 10 13 9 13 10 0 10
-13 0 -13 1 0 10 13 9 13 10 0 10 -13 0 -13 1 0 10 10 6 11 10 3 10 -7 0 -13
5 -13 11 0 5 4 8 8 5 10 -6 8 21 -3 48 -5 12 -3 21 6 27 12 7 12 9 -1 9 -13 0
-13 1 0 10 8 5 10 10 4 10 -5 0 -11 21 -13 48 -1 26 -7 49 -12 50 -6 3 -5 11
3 20 7 10 9 14 4 10 -4 -4 -14 -1 -21 5 -10 9 -10 15 -1 26 8 12 8 13 -1 7 -8
-4 -13 -1 -13 8 0 8 -9 20 -19 26 -11 5 -22 19 -26 29 -4 13 -12 18 -22 14
-11 -4 -14 -2 -9 5 4 7 1 12 -9 12 -9 0 -13 4 -10 10 3 6 -1 7 -9 4 -10 -4
-16 -1 -16 7 0 11 -3 11 -10 -1 -8 -13 -10 -12 -10 3 0 13 -8 17 -32 17 -25 0
-29 3 -18 10 9 6 10 10 3 10 -6 0 -15 -5 -18 -10 -4 -6 -11 -8 -16 -4 -5 3 -7
10 -4 15 4 5 1 9 -4 9 -6 0 -11 -7 -11 -16 0 -8 -5 -12 -10 -9 -6 4 -7 12 -3
18 4 8 1 7 -9 -1 -12 -9 -18 -10 -23 -2 -5 8 -12 5 -22 -7 -8 -10 -11 -12 -7
-4 5 11 1 13 -20 9 -21 -4 -26 -2 -22 9 3 8 1 11 -4 8 -6 -3 -10 -13 -10 -21
0 -13 -2 -13 -16 1 -14 13 -18 14 -25 3 -7 -10 -12 -11 -28 -1 -16 10 -20 9
-25 -4 -5 -12 -9 -14 -18 -5 -15 15 -48 16 -48 1 0 -6 -8 -3 -17 7 -16 15 -17
15 -24 -2 -6 -15 -8 -15 -8 -3 -1 9 -8 16 -16 16 -8 0 -12 -4 -10 -8 3 -4 -2
-9 -10 -12 -9 -4 -12 -1 -9 7 4 10 -2 12 -20 9 -16 -3 -23 -10 -19 -17 4 -6
-1 -5 -10 3 -19 15 -59 21 -68 9 -3 -5 -15 1 -26 11 -11 11 -24 17 -27 14 -3
-4 -6 1 -6 10 0 8 6 18 13 20 6 3 3 6 -7 6 -20 1 -20 1 0 17 10 8 13 13 7 9
-16 -8 -17 9 -2 36 6 12 17 18 25 15 8 -3 14 0 14 6 0 6 9 3 20 -7 19 -17 20
-17 14 -1 -6 16 -4 16 32 2 l39 -16 -25 21 c-18 14 -19 18 -5 11 11 -6 37 -13
58 -16 29 -5 36 -3 31 6 -5 8 0 7 11 -2 17 -14 18 -13 12 3 -10 25 2 21 13 -5
7 -19 9 -19 9 -5 1 12 5 16 14 10 19 -12 37 -12 37 -1 0 6 9 3 20 -7 18 -16
20 -16 15 -2 -6 14 -2 15 25 7 28 -8 31 -7 25 8 -5 13 -1 12 17 -4 26 -24 50
-21 41 4 -4 13 -2 12 10 -3 11 -13 16 -15 17 -6 0 11 3 11 15 1 12 -10 15 -9
16 6 0 18 1 18 9 -1 5 -11 9 -15 9 -9 1 11 36 12 47 1 11 -10 26 -8 19 2 -3 5
0 13 6 17 7 4 9 3 6 -2 -3 -6 4 -16 15 -23 18 -11 20 -11 14 4 -5 15 -4 16 9
5 12 -10 15 -10 15 0 0 10 3 10 15 0 12 -10 15 -10 15 1 0 8 6 6 16 -7 8 -10
13 -14 10 -8 -3 7 1 14 9 18 8 3 15 1 15 -3 0 -14 33 -6 38 8 3 8 8 6 18 -6
12 -16 12 -16 7 6 -4 16 -2 22 5 18 6 -4 9 0 7 10 -2 10 -4 18 -5 18 -7 0 -6
36 1 41 5 3 9 10 9 15 0 6 -4 8 -8 5 -4 -2 -8 4 -8 14 0 10 4 16 8 14 4 -3 8
0 8 5 0 6 -4 11 -8 11 -5 0 -8 24 -8 54 1 30 4 52 9 49 12 -7 8 12 -5 25 -9 9
-9 12 1 12 7 0 9 5 4 13 -12 19 -9 41 7 55 13 10 12 11 -4 5 -14 -4 -17 -3
-12 6 5 7 2 10 -6 9 -7 -2 -12 3 -10 11 3 12 0 12 -11 2 -12 -9 -16 -9 -20 1
-4 11 -6 11 -6 0 -1 -10 -6 -10 -22 -1 -15 8 -19 8 -15 0 4 -6 2 -11 -3 -11
-6 0 -11 6 -11 13 0 8 -4 7 -10 -3 -8 -12 -10 -12 -11 5 l0 20 -9 -20 c-5 -11
-9 -14 -9 -7 -1 9 -6 10 -20 2 -14 -7 -21 -6 -24 3 -3 6 -6 7 -6 1 -1 -10 -61
-10 -89 1 -7 2 -10 0 -7 -5 8 -13 -1 -13 -26 0 -15 9 -19 7 -20 -7 0 -16 -1
-16 -9 2 -5 11 -9 14 -9 6 -1 -11 -4 -11 -16 -1 -8 7 -15 8 -15 3 0 -8 -32
-10 -50 -3 -3 1 -9 1 -15 0 -36 -7 -96 -2 -112 11 -16 12 -17 12 -6 -2 11 -13
9 -15 -10 -15 -12 1 -25 8 -29 16 -5 12 -7 12 -7 -2 -1 -21 -27 -24 -34 -5 -4
10 -6 10 -6 0 -1 -19 -29 -15 -34 5 -4 16 -5 16 -6 0 -1 -21 -27 -24 -34 -5
-4 9 -6 9 -6 0 -1 -9 -8 -10 -27 -3 -16 7 -23 7 -19 0 3 -6 1 -10 -4 -10 -6 0
-11 6 -11 13 0 8 -4 7 -10 -3 -9 -13 -11 -13 -20 0 -9 13 -14 7 -11 -12 0 -4
-6 -5 -14 -2 -8 4 -13 10 -10 14 3 5 1 12 -5 15 -6 4 -9 1 -8 -6z"/>
<path d="M1350 6599 c0 -5 5 -7 10 -4 6 3 10 8 10 11 0 2 -4 4 -10 4 -5 0 -10
-5 -10 -11z"/>
<path d="M9585 6590 c-3 -6 1 -7 9 -4 18 7 21 14 7 14 -6 0 -13 -4 -16 -10z"/>
<path d="M5871 6074 c0 -11 3 -14 6 -6 3 7 2 16 -1 19 -3 4 -6 -2 -5 -13z"/>
<path d="M8037 5524 c-10 -14 -23 -21 -29 -18 -7 5 -8 2 -3 -5 5 -9 13 -7 29
8 12 12 25 19 28 16 3 -3 11 1 18 10 8 10 9 15 1 15 -6 0 -11 -6 -11 -12 0
-10 -2 -10 -8 -2 -5 8 -13 4 -25 -12z"/>
<path d="M4260 5466 c0 -2 7 -7 16 -10 8 -3 12 -2 9 4 -6 10 -25 14 -25 6z"/>
<path d="M7875 5460 c-3 -5 -2 -10 4 -10 5 0 13 5 16 10 3 6 2 10 -4 10 -5 0
-13 -4 -16 -10z"/>
<path d="M7834 5429 c-4 -7 -3 -9 4 -5 5 3 13 0 15 -6 4 -9 6 -10 6 -1 1 17
-16 25 -25 12z"/>
<path d="M590 5036 c0 -2 8 -10 18 -17 15 -13 16 -12 3 4 -13 16 -21 21 -21
13z"/>
<path d="M1785 4949 c-11 -16 -1 -19 13 -3 7 8 8 14 3 14 -5 0 -13 -5 -16 -11z"/>
<path d="M2710 4946 c0 -2 8 -10 18 -17 15 -13 16 -12 3 4 -13 16 -21 21 -21
13z"/>
<path d="M1305 4670 c-3 -5 -3 -10 2 -10 4 -1 -3 -7 -17 -15 -14 -8 -20 -14
-14 -15 20 0 58 36 46 44 -6 3 -13 2 -17 -4z"/>
<path d="M1970 4450 c0 -5 5 -10 11 -10 5 0 7 5 4 10 -3 6 -8 10 -11 10 -2 0
-4 -4 -4 -10z"/>
<path d="M6326 4408 c3 -5 10 -6 15 -3 13 9 11 12 -6 12 -8 0 -12 -4 -9 -9z"/>
<path d="M7416 3212 c-3 -5 1 -9 9 -9 8 0 12 4 9 9 -3 4 -7 8 -9 8 -2 0 -6 -4
-9 -8z"/>
<path d="M6986 2593 c-6 -14 -5 -15 5 -6 7 7 10 15 7 18 -3 3 -9 -2 -12 -12z"/>
<path d="M6683 1785 c0 -8 4 -12 9 -9 5 3 6 10 3 15 -9 13 -12 11 -12 -6z"/>
<path d="M6685 1641 c-3 -5 -2 -12 3 -15 5 -3 9 1 9 9 0 17 -3 19 -12 6z"/>
<path d="M6916 1312 c-2 -4 -1 -14 4 -22 7 -11 9 -9 7 8 -1 24 -3 26 -11 14z"/>
</g>
</svg>
